<svg id="Calque_1" data-name="Calque 1" xmlns="http://www.w3.org/2000/svg" xmlns:xlink="http://www.w3.org/1999/xlink" viewBox="0 0 1920 1617"><defs><style>.cls-1,.cls-2,.cls-3,.cls-4,.cls-5{opacity:0.74;isolation:isolate;}.cls-1{fill:url(#Dégradé_sans_nom_20);}.cls-2{fill:url(#Dégradé_sans_nom_21);}.cls-3{fill:url(#Dégradé_sans_nom_22);}.cls-4{fill:url(#Dégradé_sans_nom_24);}.cls-5{fill:url(#Dégradé_sans_nom_23);}</style><linearGradient id="Dégradé_sans_nom_20" x1="1.11" y1="1501.63" x2="1.11" y2="1501.29" gradientTransform="matrix(2081.49, 0, 0, -1074.09, -1009.76, 1613716.03)" gradientUnits="userSpaceOnUse"><stop offset="0" stop-color="#d500f9"/><stop offset="0.11" stop-color="#ce00f3"/><stop offset="0.28" stop-color="#ba00e2"/><stop offset="0.49" stop-color="#9900c6"/><stop offset="0.71" stop-color="#6c019e"/><stop offset="0.95" stop-color="#35016f"/></linearGradient><linearGradient id="Dégradé_sans_nom_21" x1="0.69" y1="1502.2" x2="0.66" y2="1501.54" gradientTransform="matrix(1062.91, 0, 0, -639.62, -522.8, 961755.61)" gradientUnits="userSpaceOnUse"><stop offset="0" stop-color="#448aff"/><stop offset="1" stop-color="#35016f"/></linearGradient><linearGradient id="Dégradé_sans_nom_22" x1="0.06" y1="1500.95" x2="1.03" y2="1500.93" gradientTransform="matrix(1080.71, 18.37, 31.27, -1839.25, -45546.55, 2761286.74)" gradientUnits="userSpaceOnUse"><stop offset="0" stop-color="#4064ff"/><stop offset="1" stop-color="#35016f"/></linearGradient><linearGradient id="Dégradé_sans_nom_24" x1="0.55" y1="1501.07" x2="0.65" y2="1501.58" gradientTransform="matrix(916.48, 0, 0, -747.55, 842.89, 1122530.88)" xlink:href="#Dégradé_sans_nom_22"/><linearGradient id="Dégradé_sans_nom_23" x1="0.9" y1="1501.01" x2="0.96" y2="1502.3" gradientTransform="matrix(1367.47, 0, 0, -582.16, 75.63, 874480.34)" gradientUnits="userSpaceOnUse"><stop offset="0" stop-color="#d500f9"/><stop offset="1" stop-color="#35016f"/></linearGradient></defs><title>Plan de travail 1</title><path id="Tracé_60" data-name="Tracé 60" class="cls-1" d="M947,1363c221-223,645-83.69,837.29-57.63,86.21,11.68,310.27,52,398.62-62.4,216.94-281-59-489.47-231.2-515.74-171.11-26.1-285.44,422.27-805.14,156.57-319.24-163.21-561.81-69.36-700.23,39.4,0,0-257.89,268.12,69.66,465.8C743,1526,947,1363,947,1363Z"/><path id="Tracé_61" data-name="Tracé 61" class="cls-2" d="M-197.64,983.45c96.17-76.52,299.4-111.17,501.2-36.38s358.26,254.69,404.92,483.11S378,1203.78,187.78,1416s-521,147.56-537.59-83.4C-359,1203.67-268.76,1040.05-197.64,983.45Z"/><path id="Tracé_62" data-name="Tracé 62" class="cls-3" d="M1797.27-80.39C1753,79.44,1929,257.79,1716.51,506.78c-136,159.3-248.41,448.91-63.06,772.37S2142.62,1667.68,2505,1584s-209.11-366.84-49.34-844.59,19.49-730.14-224.29-871S1846.81-259.24,1797.27-80.39Z"/><path id="Tracé_63" data-name="Tracé 63" class="cls-4" d="M1048-271.48c-71.93,97.88-100.82,470.26,166.14,601.69s628.39,11.29,690-258.75-170.44-69.82-328.56-234.1S1186.83-460.41,1048-271.48Z"/><path id="Tracé_64" data-name="Tracé 64" class="cls-5" d="M682.53-156c24.26,185,105.12,579.13,650.9,360.82S2049,426.13,2049,426.13V-125.71Z"/></svg>