<svg xmlns="http://www.w3.org/2000/svg" xmlns:xlink="http://www.w3.org/1999/xlink" viewBox="0 0 750 2022"><defs><style>.cls-1{isolation:isolate;}.cls-2,.cls-3,.cls-4,.cls-5,.cls-6{opacity:0.74;mix-blend-mode:screen;}.cls-2{fill:url(#Dégradé_sans_nom_7);}.cls-3{fill:url(#Dégradé_sans_nom_9);}.cls-4{fill:url(#Dégradé_sans_nom_16);}.cls-5{fill:url(#linear-gradient);}.cls-6{fill:url(#linear-gradient-2);}</style><linearGradient id="Dégradé_sans_nom_7" x1="459.31" y1="634.45" x2="1498.54" y2="661.67" gradientTransform="translate(-144.61 304.99) rotate(-15.4)" gradientUnits="userSpaceOnUse"><stop offset="0" stop-color="#4064ff"/><stop offset="1" stop-color="#35016f"/></linearGradient><linearGradient id="Dégradé_sans_nom_9" x1="417.6" y1="1042.88" x2="427.05" y2="1324.9" gradientUnits="userSpaceOnUse"><stop offset="0" stop-color="#d500f9"/><stop offset="1" stop-color="#35016f"/></linearGradient><linearGradient id="Dégradé_sans_nom_16" x1="103.76" y1="1231.54" x2="-86.2" y2="1327.54" gradientUnits="userSpaceOnUse"><stop offset="0" stop-color="#448aff"/><stop offset="1" stop-color="#35016f"/></linearGradient><linearGradient id="linear-gradient" x1="399.18" y1="250.8" x2="457.23" y2="8.29" gradientUnits="userSpaceOnUse"><stop offset="0" stop-color="#4064ff"/><stop offset="1"/></linearGradient><linearGradient id="linear-gradient-2" x1="369.78" y1="406.98" x2="428.83" y2="-65.37" gradientUnits="userSpaceOnUse"><stop offset="0" stop-color="#d500f9"/><stop offset="1"/></linearGradient></defs><title>Plan de travail 1</title><g class="cls-1"><g id="Calque_1" data-name="Calque 1"><path class="cls-2" d="M634.41,149C627.5,279.49,835.07,362.7,687.24,605.68,592.66,761.14,549.36,1006.47,798,1194.45s553.13,152,880.64-10.13-280.87-213.49-234-611.09-143-545.47-407-582.22S642.14,3,634.41,149Z"/><path class="cls-3" d="M830.51,1066.93c-94.37-13.6-157.42,220.1-444,81.61C210.41,1063.47,76.63,1112.39.29,1169.08c-109.62,81.4-174.57,239.06-134.13,403.3S158.27,1481.21,270,1388.83s362.11-34.13,468.15-20.55c47.54,6.09,171.11,27.12,219.84-32.53C1077.66,1189.29,925.48,1080.63,830.51,1066.93Z"/><path class="cls-4" d="M-48.13,1098.12c45.64,7.53,113.8,54.36,157.18,127.45S158.92,1385,122,1453.28s-47.91-145-151.72-145.06-187.82-105.79-141.34-166.5C-145.15,1107.82-81.88,1092.55-48.13,1098.12Z"/><path class="cls-5" d="M210.57-174.11c-45.18,61.48-62.7,295.4,105,378S710.3,211,749,41.31,641.93-2.54,542.6-105.74,297.78-292.79,210.57-174.11Z"/><path class="cls-6" d="M-19-101.59C-3.76,14.6,47.66,262.2,390.5,125.07s449.5,139,449.5,139V-82.54Z"/></g></g></svg>