<svg id="Calque_1" data-name="Calque 1" xmlns="http://www.w3.org/2000/svg" xmlns:xlink="http://www.w3.org/1999/xlink" viewBox="0 0 1920 1929"><defs><style>.cls-1,.cls-2,.cls-3{opacity:0.74;isolation:isolate;}.cls-1{fill:url(#Dégradé_sans_nom_4);}.cls-2{fill:url(#Dégradé_sans_nom_2);}.cls-3{fill:url(#Dégradé_sans_nom_3);}</style><linearGradient id="Dégradé_sans_nom_4" x1="1.95" y1="1703.42" x2="1.96" y2="1702.92" gradientTransform="matrix(0, -2081.49, -1074.09, 0, 1831229.34, 5142.55)" gradientUnits="userSpaceOnUse"><stop offset="0" stop-color="#d500f9"/><stop offset="1"/></linearGradient><linearGradient id="Dégradé_sans_nom_2" x1="2.15" y1="1700.65" x2="3.09" y2="1700.63" gradientTransform="matrix(-1067.4, 169.06, 223.4, 1410.47, -377323.76, -2398310.76)" gradientUnits="userSpaceOnUse"><stop offset="0" stop-color="#4064ff"/><stop offset="1"/></linearGradient><linearGradient id="Dégradé_sans_nom_3" x1="1.41" y1="1700.02" x2="1.75" y2="1699.67" gradientTransform="matrix(-552.35, 812.56, 839.28, 570.51, -1425716.74, -970505.88)" gradientUnits="userSpaceOnUse"><stop offset="0" stop-color="#651fff"/><stop offset="1"/></linearGradient></defs><title>Plan de travail 1</title><path id="Tracé_107" data-name="Tracé 107" class="cls-1" d="M1660.45,342.4c-25.43,166.67,411.31,278,152.51,784.26-159,311-67.57,547.23,38.37,682.07,152.12,193.62,446.75,308.33,753.68,236.9s-170.39-515.92-343-713.31-63.79-639.55-38.4-826.84c11.38-84,50.68-302.23-60.79-388.29C1889.1-94.12,1686,174.67,1660.45,342.4Z"/><path id="Tracé_106" data-name="Tracé 106" class="cls-2" d="M73.47,1389.3c21-126.25-172-229.92-1.54-450.28C181,798,249.92,564,28.47,353.83s-521.8-208.41-858.31-86.33S-579.76,506-668.78,887.88s79.59,546.57,332.53,611.17S50,1530.57,73.47,1389.3Z"/><path id="Tracé_108" data-name="Tracé 108" class="cls-3" d="M130,957.83c-87.55-57.7-221.88-175-87.95-407.33C151.59,360.58,158.26,191.6,53.88,77.69c-90.28-98.54-307.29-144.23-474.57,119C-593.17,468.17-361,748.47-235.61,795.57S16.29,974.65-66.74,1101.69c-39.43,60.35,52.13,67.51,135,38.46C159.77,1108,258.1,1042.22,130,957.83Z"/></svg>