<?xml version="1.0" encoding="utf-8"?>
<!-- Generator: Adobe Illustrator 24.0.1, SVG Export Plug-In . SVG Version: 6.00 Build 0)  -->
<svg version="1.1" id="Calque_1" xmlns="http://www.w3.org/2000/svg" xmlns:xlink="http://www.w3.org/1999/xlink" x="0px" y="0px"
	 viewBox="0 0 1920 1080" style="enable-background:new 0 0 1920 1080;" xml:space="preserve">
<style type="text/css">
	.st0{fill:url(#SVGID_1_);}
	.st1{clip-path:url(#SVGID_3_);}
	.st2{opacity:0.74;fill:url(#SVGID_4_);}
	.st3{opacity:0.74;fill:url(#SVGID_5_);}
	.st4{opacity:0.74;fill:url(#SVGID_6_);}
	.st5{opacity:0.74;fill:url(#SVGID_7_);}
	.st6{opacity:0.74;fill:url(#SVGID_8_);}
	.st7{fill:none;stroke:#FFFFFF;stroke-width:2;stroke-linecap:round;stroke-linejoin:round;stroke-miterlimit:10;}
	.st8{fill:#FFFFFF;}
	.st9{clip-path:url(#SVGID_10_);}
	.st10{clip-path:url(#SVGID_12_);}
	.st11{clip-path:url(#SVGID_14_);}
	.st12{opacity:0.74;fill:url(#SVGID_15_);}
	.st13{opacity:0.74;fill:url(#SVGID_16_);}
	.st14{opacity:0.74;fill:url(#SVGID_17_);}
	.st15{fill:none;}
</style>
<g>
	<g>
		<linearGradient id="SVGID_1_" gradientUnits="userSpaceOnUse" x1="960" y1="25.3048" x2="960" y2="1075.5197">
			<stop  offset="0" style="stop-color:#2D0066"/>
			<stop  offset="1" style="stop-color:#570997"/>
		</linearGradient>
		<path class="st0" d="M0,1080V0c2,0,9.49,0,21.2,0h1877.6c11.71,0,15.2,0,21.2,0v1061.98c0,10.55-9.49,19.1-21.2,19.1"/>
		<g>
			<defs>
				<path id="SVGID_2_" d="M1920,1081l-1723.43,0.08c-3.48,0-6.29-2.82-6.29-6.29V6.29c0-3.48,2.82-6.29,6.29-6.29h1717.14
					c3.48,0,6.29,2.82,6.29,6.29v1068.49C1920,1078.26,1920,1076,1920,1081z"/>
			</defs>
			<clipPath id="SVGID_3_">
				<use xlink:href="#SVGID_2_"  style="overflow:visible;"/>
			</clipPath>
			<g class="st1">
				<linearGradient id="SVGID_4_" gradientUnits="userSpaceOnUse" x1="1335.036" y1="330.5833" x2="1776.8983" y2="766.8286">
					<stop  offset="0" style="stop-color:#651FFF"/>
					<stop  offset="1" style="stop-color:#000000"/>
				</linearGradient>
				<path class="st2" d="M1935.61,186.83c1.97,131.17-26.26,352.69-377.44,377.51c-287.11,20.29-475.55,132.24-522.21,320.37
					c-40.36,162.73,70.23,419.41,479.64,407.33c422.13-12.46,555.17-449.82,513.74-612.72c-41.43-162.9,8.52-386.61,207.79-390.06
					c94.65-1.64,34.84-101.42-57.86-166.7C2076.81,50.41,1932.73-5.04,1935.61,186.83z"/>
				<linearGradient id="SVGID_5_" gradientUnits="userSpaceOnUse" x1="1415.5902" y1="395.6375" x2="1508.0917" y2="9.1857">
					<stop  offset="0" style="stop-color:#4064FF"/>
					<stop  offset="1" style="stop-color:#000000"/>
				</linearGradient>
				<path class="st3" d="M1115.04-281.47c-72,97.98-99.92,470.73,167.31,602.29c267.23,131.56,629.01,11.31,690.68-259
					c61.67-270.31-170.61-69.89-328.9-234.34S1254.02-470.59,1115.04-281.47z"/>
				<linearGradient id="SVGID_6_" gradientUnits="userSpaceOnUse" x1="1052.2521" y1="460.317" x2="2098.3069" y2="487.7246">
					<stop  offset="0" style="stop-color:#4064FF"/>
					<stop  offset="1" style="stop-color:#000000"/>
				</linearGradient>
				<path class="st4" d="M1387.6-121.39c-41.59,124.77,137.59,261.02-70.82,457.29c-133.34,125.57-240.96,352.07-49.97,600.95
					s496.13,295.42,857.3,225.61c361.18-69.81-215.49-282.26-63.74-655.58s7.08-567.56-239.27-673.79
					C1574.76-273.15,1434.14-261.01,1387.6-121.39z"/>
				<linearGradient id="SVGID_7_" gradientUnits="userSpaceOnUse" x1="1407.0173" y1="669.0962" x2="1425.2279" y2="1212.3796">
					<stop  offset="0" style="stop-color:#D500F9"/>
					<stop  offset="1" style="stop-color:#000000"/>
				</linearGradient>
				<path class="st5" d="M2157.62,716.89c-171.28-26.13-285.73,422.69-805.94,156.73c-319.56-163.38-562.37-69.43-700.93,39.43
					c-198.98,156.33-316.86,459.11-243.46,774.53s530.19-175.09,733.04-352.5c202.85-177.4,657.24-65.55,849.71-39.47
					c86.3,11.69,310.58,52.09,399.02-62.46C2606.22,951.87,2330,743.19,2157.62,716.89z"/>
				<linearGradient id="SVGID_8_" gradientUnits="userSpaceOnUse" x1="1368.7036" y1="644.5129" x2="1462.7916" y2="-108.1931">
					<stop  offset="0" style="stop-color:#D500F9"/>
					<stop  offset="1" style="stop-color:#000000"/>
				</linearGradient>
				<path class="st6" d="M749.17-165.91c24.28,185.14,106.23,579.7,652.55,361.18S2118,416.83,2118,416.83v-552.39L749.17-165.91z"
					/>
			</g>
			<g class="st1">
				<circle class="st7" cx="1171.3" cy="302.03" r="16.19"/>
				<path class="st7" d="M1660.92,329.24c0,7.51-6.09,13.6-13.6,13.6c-7.51,0-13.6-6.09-13.6-13.6c0-7.51,6.09-13.6,13.6-13.6
					C1654.84,315.63,1660.92,321.72,1660.92,329.24z"/>
				<path class="st7" d="M1663.51,590.85c0,8.94-7.25,16.19-16.19,16.19c-8.94,0-16.19-7.25-16.19-16.19
					c0-8.94,7.25-16.19,16.19-16.19C1656.26,574.66,1663.51,581.91,1663.51,590.85z"/>
				<path class="st7" d="M462.9,965.22c0,8.94-7.25,16.19-16.19,16.19c-8.94,0-16.19-7.25-16.19-16.19s7.25-16.19,16.19-16.19
					C455.66,949.04,462.9,956.28,462.9,965.22z"/>
				<circle class="st7" cx="1365.34" cy="965.22" r="16.19"/>
				<path class="st7" d="M1272.52,207.87c10.94,0,10.94,16.23,21.88,16.23c10.94,0,10.94-16.23,21.89-16.23
					c10.95,0,10.95,16.23,21.89,16.23c10.95,0,10.95-16.23,21.9-16.23c10.95,0,10.95,16.23,21.89,16.23
					c10.95,0,10.95-16.23,21.91-16.23s10.95,16.23,21.91,16.23"/>
				<path class="st7" d="M1674.02,750.18c10.94,0,10.94,16.23,21.88,16.23c10.94,0,10.94-16.23,21.89-16.23
					c10.95,0,10.95,16.23,21.89,16.23c10.95,0,10.95-16.23,21.9-16.23c10.95,0,10.95,16.23,21.89,16.23
					c10.95,0,10.95-16.23,21.91-16.23s10.95,16.23,21.91,16.23"/>
				<path class="st7" d="M647.29,995.37c10.94,0,10.94,16.23,21.88,16.23s10.94-16.23,21.89-16.23c10.95,0,10.95,16.23,21.89,16.23
					c10.95,0,10.95-16.23,21.9-16.23c10.95,0,10.95,16.23,21.89,16.23c10.95,0,10.95-16.23,21.91-16.23
					c10.95,0,10.95,16.23,21.91,16.23"/>
				<g>
					<line class="st7" x1="1423.5" y1="422.9" x2="1444.24" y2="443.64"/>
					<line class="st7" x1="1423.5" y1="443.64" x2="1444.24" y2="422.9"/>
				</g>
				<g>
					<line class="st7" x1="1010.24" y1="178.28" x2="1030.98" y2="199.02"/>
					<line class="st7" x1="1010.24" y1="199.02" x2="1030.98" y2="178.28"/>
				</g>
				<g>
					<line class="st7" x1="831.16" y1="884.76" x2="851.9" y2="905.5"/>
					<line class="st7" x1="831.16" y1="905.5" x2="851.9" y2="884.76"/>
				</g>
				<g>
					<path class="st8" d="M954.92,877.72c0,3.11-2.52,5.62-5.62,5.62c-3.11,0-5.62-2.52-5.62-5.62c0-3.11,2.52-5.62,5.62-5.62
						C952.4,872.1,954.92,874.62,954.92,877.72z"/>
					<path class="st8" d="M987.76,877.72c0,3.11-2.52,5.62-5.62,5.62c-3.11,0-5.62-2.52-5.62-5.62c0-3.11,2.52-5.62,5.62-5.62
						C985.24,872.1,987.76,874.62,987.76,877.72z"/>
					<path class="st8" d="M1020.61,877.72c0,3.11-2.52,5.62-5.62,5.62c-3.11,0-5.62-2.52-5.62-5.62c0-3.11,2.52-5.62,5.62-5.62
						C1018.09,872.1,1020.61,874.62,1020.61,877.72z"/>
					<path class="st8" d="M1053.45,877.72c0,3.11-2.52,5.62-5.62,5.62c-3.11,0-5.62-2.52-5.62-5.62c0-3.11,2.52-5.62,5.62-5.62
						C1050.93,872.1,1053.45,874.62,1053.45,877.72z"/>
					<path class="st8" d="M1086.3,877.72c0,3.11-2.52,5.62-5.62,5.62s-5.62-2.52-5.62-5.62c0-3.11,2.52-5.62,5.62-5.62
						S1086.3,874.62,1086.3,877.72z"/>
					<path class="st8" d="M1119.14,877.72c0,3.11-2.52,5.62-5.62,5.62c-3.11,0-5.62-2.52-5.62-5.62c0-3.11,2.52-5.62,5.62-5.62
						C1116.63,872.1,1119.14,874.62,1119.14,877.72z"/>
					<path class="st8" d="M1151.99,877.72c0,3.11-2.52,5.62-5.62,5.62c-3.11,0-5.62-2.52-5.62-5.62c0-3.11,2.52-5.62,5.62-5.62
						C1149.47,872.1,1151.99,874.62,1151.99,877.72z"/>
					<path class="st8" d="M1184.83,877.72c0,3.11-2.52,5.62-5.62,5.62c-3.11,0-5.62-2.52-5.62-5.62c0-3.11,2.52-5.62,5.62-5.62
						C1182.32,872.1,1184.83,874.62,1184.83,877.72z"/>
					<path class="st8" d="M954.92,910.57c0,3.11-2.52,5.62-5.62,5.62c-3.11,0-5.62-2.52-5.62-5.62c0-3.11,2.52-5.62,5.62-5.62
						C952.4,904.94,954.92,907.46,954.92,910.57z"/>
					<path class="st8" d="M987.76,910.57c0,3.11-2.52,5.62-5.62,5.62c-3.11,0-5.62-2.52-5.62-5.62c0-3.11,2.52-5.62,5.62-5.62
						C985.24,904.94,987.76,907.46,987.76,910.57z"/>
					<path class="st8" d="M1020.61,910.57c0,3.11-2.52,5.62-5.62,5.62c-3.11,0-5.62-2.52-5.62-5.62c0-3.11,2.52-5.62,5.62-5.62
						C1018.09,904.94,1020.61,907.46,1020.61,910.57z"/>
					<path class="st8" d="M1053.45,910.57c0,3.11-2.52,5.62-5.62,5.62c-3.11,0-5.62-2.52-5.62-5.62c0-3.11,2.52-5.62,5.62-5.62
						C1050.93,904.94,1053.45,907.46,1053.45,910.57z"/>
					<path class="st8" d="M1086.3,910.57c0,3.11-2.52,5.62-5.62,5.62s-5.62-2.52-5.62-5.62c0-3.11,2.52-5.62,5.62-5.62
						S1086.3,907.46,1086.3,910.57z"/>
					<path class="st8" d="M1119.14,910.57c0,3.11-2.52,5.62-5.62,5.62c-3.11,0-5.62-2.52-5.62-5.62c0-3.11,2.52-5.62,5.62-5.62
						C1116.63,904.94,1119.14,907.46,1119.14,910.57z"/>
					<path class="st8" d="M1151.99,910.57c0,3.11-2.52,5.62-5.62,5.62c-3.11,0-5.62-2.52-5.62-5.62c0-3.11,2.52-5.62,5.62-5.62
						C1149.47,904.94,1151.99,907.46,1151.99,910.57z"/>
					<path class="st8" d="M1184.83,910.57c0,3.11-2.52,5.62-5.62,5.62c-3.11,0-5.62-2.52-5.62-5.62c0-3.11,2.52-5.62,5.62-5.62
						C1182.32,904.94,1184.83,907.46,1184.83,910.57z"/>
					<path class="st8" d="M954.92,943.41c0,3.11-2.52,5.62-5.62,5.62c-3.11,0-5.62-2.52-5.62-5.62s2.52-5.62,5.62-5.62
						C952.4,937.79,954.92,940.31,954.92,943.41z"/>
					<path class="st8" d="M987.76,943.41c0,3.11-2.52,5.62-5.62,5.62c-3.11,0-5.62-2.52-5.62-5.62s2.52-5.62,5.62-5.62
						C985.24,937.79,987.76,940.31,987.76,943.41z"/>
					<path class="st8" d="M1020.61,943.41c0,3.11-2.52,5.62-5.62,5.62c-3.11,0-5.62-2.52-5.62-5.62s2.52-5.62,5.62-5.62
						C1018.09,937.79,1020.61,940.31,1020.61,943.41z"/>
					<path class="st8" d="M1053.45,943.41c0,3.11-2.52,5.62-5.62,5.62c-3.11,0-5.62-2.52-5.62-5.62s2.52-5.62,5.62-5.62
						C1050.93,937.79,1053.45,940.31,1053.45,943.41z"/>
					<path class="st8" d="M1086.3,943.41c0,3.11-2.52,5.62-5.62,5.62s-5.62-2.52-5.62-5.62s2.52-5.62,5.62-5.62
						S1086.3,940.31,1086.3,943.41z"/>
					<path class="st8" d="M1119.14,943.41c0,3.11-2.52,5.62-5.62,5.62c-3.11,0-5.62-2.52-5.62-5.62s2.52-5.62,5.62-5.62
						C1116.63,937.79,1119.14,940.31,1119.14,943.41z"/>
					<path class="st8" d="M1151.99,943.41c0,3.11-2.52,5.62-5.62,5.62c-3.11,0-5.62-2.52-5.62-5.62s2.52-5.62,5.62-5.62
						C1149.47,937.79,1151.99,940.31,1151.99,943.41z"/>
					<path class="st8" d="M1184.83,943.41c0,3.11-2.52,5.62-5.62,5.62c-3.11,0-5.62-2.52-5.62-5.62s2.52-5.62,5.62-5.62
						C1182.32,937.79,1184.83,940.31,1184.83,943.41z"/>
					<path class="st8" d="M954.92,976.26c0,3.11-2.52,5.62-5.62,5.62c-3.11,0-5.62-2.52-5.62-5.62s2.52-5.62,5.62-5.62
						C952.4,970.63,954.92,973.15,954.92,976.26z"/>
					<path class="st8" d="M987.76,976.26c0,3.11-2.52,5.62-5.62,5.62c-3.11,0-5.62-2.52-5.62-5.62s2.52-5.62,5.62-5.62
						C985.24,970.63,987.76,973.15,987.76,976.26z"/>
					<path class="st8" d="M1020.61,976.26c0,3.11-2.52,5.62-5.62,5.62c-3.11,0-5.62-2.52-5.62-5.62s2.52-5.62,5.62-5.62
						C1018.09,970.63,1020.61,973.15,1020.61,976.26z"/>
					<path class="st8" d="M1053.45,976.26c0,3.11-2.52,5.62-5.62,5.62c-3.11,0-5.62-2.52-5.62-5.62s2.52-5.62,5.62-5.62
						C1050.93,970.63,1053.45,973.15,1053.45,976.26z"/>
					<path class="st8" d="M1086.3,976.26c0,3.11-2.52,5.62-5.62,5.62s-5.62-2.52-5.62-5.62s2.52-5.62,5.62-5.62
						S1086.3,973.15,1086.3,976.26z"/>
					<path class="st8" d="M1119.14,976.26c0,3.11-2.52,5.62-5.62,5.62c-3.11,0-5.62-2.52-5.62-5.62s2.52-5.62,5.62-5.62
						C1116.63,970.63,1119.14,973.15,1119.14,976.26z"/>
					<path class="st8" d="M1151.99,976.26c0,3.11-2.52,5.62-5.62,5.62c-3.11,0-5.62-2.52-5.62-5.62s2.52-5.62,5.62-5.62
						C1149.47,970.63,1151.99,973.15,1151.99,976.26z"/>
					<path class="st8" d="M1184.83,976.26c0,3.11-2.52,5.62-5.62,5.62c-3.11,0-5.62-2.52-5.62-5.62s2.52-5.62,5.62-5.62
						C1182.32,970.63,1184.83,973.15,1184.83,976.26z"/>
					<path class="st8" d="M954.92,1009.1c0,3.11-2.52,5.62-5.62,5.62c-3.11,0-5.62-2.52-5.62-5.62c0-3.11,2.52-5.62,5.62-5.62
						C952.4,1003.48,954.92,1006,954.92,1009.1z"/>
					<path class="st8" d="M987.76,1009.1c0,3.11-2.52,5.62-5.62,5.62c-3.11,0-5.62-2.52-5.62-5.62c0-3.11,2.52-5.62,5.62-5.62
						C985.24,1003.48,987.76,1006,987.76,1009.1z"/>
					<path class="st8" d="M1020.61,1009.1c0,3.11-2.52,5.62-5.62,5.62c-3.11,0-5.62-2.52-5.62-5.62c0-3.11,2.52-5.62,5.62-5.62
						C1018.09,1003.48,1020.61,1006,1020.61,1009.1z"/>
					<path class="st8" d="M1053.45,1009.1c0,3.11-2.52,5.62-5.62,5.62c-3.11,0-5.62-2.52-5.62-5.62c0-3.11,2.52-5.62,5.62-5.62
						C1050.93,1003.48,1053.45,1006,1053.45,1009.1z"/>
					<path class="st8" d="M1086.3,1009.1c0,3.11-2.52,5.62-5.62,5.62s-5.62-2.52-5.62-5.62c0-3.11,2.52-5.62,5.62-5.62
						S1086.3,1006,1086.3,1009.1z"/>
					<path class="st8" d="M1119.14,1009.1c0,3.11-2.52,5.62-5.62,5.62c-3.11,0-5.62-2.52-5.62-5.62c0-3.11,2.52-5.62,5.62-5.62
						C1116.63,1003.48,1119.14,1006,1119.14,1009.1z"/>
					<path class="st8" d="M1151.99,1009.1c0,3.11-2.52,5.62-5.62,5.62c-3.11,0-5.62-2.52-5.62-5.62c0-3.11,2.52-5.62,5.62-5.62
						C1149.47,1003.48,1151.99,1006,1151.99,1009.1z"/>
					<path class="st8" d="M1184.83,1009.1c0,3.11-2.52,5.62-5.62,5.62c-3.11,0-5.62-2.52-5.62-5.62c0-3.11,2.52-5.62,5.62-5.62
						C1182.32,1003.48,1184.83,1006,1184.83,1009.1z"/>
				</g>
				<g>
					<path class="st8" d="M1097.03,384.58c0,3.11-2.52,5.62-5.62,5.62c-3.11,0-5.62-2.52-5.62-5.62c0-3.11,2.52-5.62,5.62-5.62
						C1094.52,378.95,1097.03,381.47,1097.03,384.58z"/>
					<path class="st8" d="M1129.88,384.58c0,3.11-2.52,5.62-5.62,5.62c-3.11,0-5.62-2.52-5.62-5.62c0-3.11,2.52-5.62,5.62-5.62
						C1127.36,378.95,1129.88,381.47,1129.88,384.58z"/>
					<path class="st8" d="M1162.72,384.58c0,3.11-2.52,5.62-5.62,5.62s-5.62-2.52-5.62-5.62c0-3.11,2.52-5.62,5.62-5.62
						S1162.72,381.47,1162.72,384.58z"/>
					<path class="st8" d="M1195.57,384.58c0,3.11-2.52,5.62-5.62,5.62c-3.11,0-5.62-2.52-5.62-5.62c0-3.11,2.52-5.62,5.62-5.62
						C1193.05,378.95,1195.57,381.47,1195.57,384.58z"/>
					<path class="st8" d="M1228.41,384.58c0,3.11-2.52,5.62-5.62,5.62c-3.11,0-5.62-2.52-5.62-5.62c0-3.11,2.52-5.62,5.62-5.62
						C1225.9,378.95,1228.41,381.47,1228.41,384.58z"/>
					<path class="st8" d="M1261.26,384.58c0,3.11-2.52,5.62-5.62,5.62c-3.11,0-5.62-2.52-5.62-5.62c0-3.11,2.52-5.62,5.62-5.62
						C1258.74,378.95,1261.26,381.47,1261.26,384.58z"/>
					<path class="st8" d="M1097.03,417.42c0,3.11-2.52,5.62-5.62,5.62c-3.11,0-5.62-2.52-5.62-5.62c0-3.11,2.52-5.62,5.62-5.62
						C1094.52,411.8,1097.03,414.32,1097.03,417.42z"/>
					<path class="st8" d="M1129.88,417.42c0,3.11-2.52,5.62-5.62,5.62c-3.11,0-5.62-2.52-5.62-5.62c0-3.11,2.52-5.62,5.62-5.62
						C1127.36,411.8,1129.88,414.32,1129.88,417.42z"/>
					<path class="st8" d="M1162.72,417.42c0,3.11-2.52,5.62-5.62,5.62s-5.62-2.52-5.62-5.62c0-3.11,2.52-5.62,5.62-5.62
						S1162.72,414.32,1162.72,417.42z"/>
					<path class="st8" d="M1195.57,417.42c0,3.11-2.52,5.62-5.62,5.62c-3.11,0-5.62-2.52-5.62-5.62c0-3.11,2.52-5.62,5.62-5.62
						C1193.05,411.8,1195.57,414.32,1195.57,417.42z"/>
					<path class="st8" d="M1228.41,417.42c0,3.11-2.52,5.62-5.62,5.62c-3.11,0-5.62-2.52-5.62-5.62c0-3.11,2.52-5.62,5.62-5.62
						C1225.9,411.8,1228.41,414.32,1228.41,417.42z"/>
					<path class="st8" d="M1261.26,417.42c0,3.11-2.52,5.62-5.62,5.62c-3.11,0-5.62-2.52-5.62-5.62c0-3.11,2.52-5.62,5.62-5.62
						C1258.74,411.8,1261.26,414.32,1261.26,417.42z"/>
					<path class="st8" d="M1097.03,450.27c0,3.11-2.52,5.62-5.62,5.62c-3.11,0-5.62-2.52-5.62-5.62c0-3.11,2.52-5.62,5.62-5.62
						C1094.52,444.64,1097.03,447.16,1097.03,450.27z"/>
					<path class="st8" d="M1129.88,450.27c0,3.11-2.52,5.62-5.62,5.62c-3.11,0-5.62-2.52-5.62-5.62c0-3.11,2.52-5.62,5.62-5.62
						C1127.36,444.64,1129.88,447.16,1129.88,450.27z"/>
					<path class="st8" d="M1162.72,450.27c0,3.11-2.52,5.62-5.62,5.62s-5.62-2.52-5.62-5.62c0-3.11,2.52-5.62,5.62-5.62
						S1162.72,447.16,1162.72,450.27z"/>
					<path class="st8" d="M1195.57,450.27c0,3.11-2.52,5.62-5.62,5.62c-3.11,0-5.62-2.52-5.62-5.62c0-3.11,2.52-5.62,5.62-5.62
						C1193.05,444.64,1195.57,447.16,1195.57,450.27z"/>
					<path class="st8" d="M1228.41,450.27c0,3.11-2.52,5.62-5.62,5.62c-3.11,0-5.62-2.52-5.62-5.62c0-3.11,2.52-5.62,5.62-5.62
						C1225.9,444.64,1228.41,447.16,1228.41,450.27z"/>
					<path class="st8" d="M1261.26,450.27c0,3.11-2.52,5.62-5.62,5.62c-3.11,0-5.62-2.52-5.62-5.62c0-3.11,2.52-5.62,5.62-5.62
						C1258.74,444.64,1261.26,447.16,1261.26,450.27z"/>
					<path class="st8" d="M1097.03,483.11c0,3.11-2.52,5.62-5.62,5.62c-3.11,0-5.62-2.52-5.62-5.62c0-3.11,2.52-5.62,5.62-5.62
						C1094.52,477.49,1097.03,480.01,1097.03,483.11z"/>
					<path class="st8" d="M1129.88,483.11c0,3.11-2.52,5.62-5.62,5.62c-3.11,0-5.62-2.52-5.62-5.62c0-3.11,2.52-5.62,5.62-5.62
						C1127.36,477.49,1129.88,480.01,1129.88,483.11z"/>
					<path class="st8" d="M1162.72,483.11c0,3.11-2.52,5.62-5.62,5.62s-5.62-2.52-5.62-5.62c0-3.11,2.52-5.62,5.62-5.62
						S1162.72,480.01,1162.72,483.11z"/>
					<path class="st8" d="M1195.57,483.11c0,3.11-2.52,5.62-5.62,5.62c-3.11,0-5.62-2.52-5.62-5.62c0-3.11,2.52-5.62,5.62-5.62
						C1193.05,477.49,1195.57,480.01,1195.57,483.11z"/>
					<path class="st8" d="M1228.41,483.11c0,3.11-2.52,5.62-5.62,5.62c-3.11,0-5.62-2.52-5.62-5.62c0-3.11,2.52-5.62,5.62-5.62
						C1225.9,477.49,1228.41,480.01,1228.41,483.11z"/>
					<path class="st8" d="M1261.26,483.11c0,3.11-2.52,5.62-5.62,5.62c-3.11,0-5.62-2.52-5.62-5.62c0-3.11,2.52-5.62,5.62-5.62
						C1258.74,477.49,1261.26,480.01,1261.26,483.11z"/>
					<path class="st8" d="M1097.03,515.96c0,3.11-2.52,5.62-5.62,5.62c-3.11,0-5.62-2.52-5.62-5.62s2.52-5.62,5.62-5.62
						C1094.52,510.33,1097.03,512.85,1097.03,515.96z"/>
					<path class="st8" d="M1129.88,515.96c0,3.11-2.52,5.62-5.62,5.62c-3.11,0-5.62-2.52-5.62-5.62s2.52-5.62,5.62-5.62
						C1127.36,510.33,1129.88,512.85,1129.88,515.96z"/>
					<path class="st8" d="M1162.72,515.96c0,3.11-2.52,5.62-5.62,5.62s-5.62-2.52-5.62-5.62s2.52-5.62,5.62-5.62
						S1162.72,512.85,1162.72,515.96z"/>
					<path class="st8" d="M1195.57,515.96c0,3.11-2.52,5.62-5.62,5.62c-3.11,0-5.62-2.52-5.62-5.62s2.52-5.62,5.62-5.62
						C1193.05,510.33,1195.57,512.85,1195.57,515.96z"/>
					<path class="st8" d="M1228.41,515.96c0,3.11-2.52,5.62-5.62,5.62c-3.11,0-5.62-2.52-5.62-5.62s2.52-5.62,5.62-5.62
						C1225.9,510.33,1228.41,512.85,1228.41,515.96z"/>
					<path class="st8" d="M1261.26,515.96c0,3.11-2.52,5.62-5.62,5.62c-3.11,0-5.62-2.52-5.62-5.62s2.52-5.62,5.62-5.62
						C1258.74,510.33,1261.26,512.85,1261.26,515.96z"/>
				</g>
				<g>
					<path class="st8" d="M1874.07,209.1c-3.11,0-5.62-2.52-5.62-5.62s2.52-5.62,5.62-5.62c3.11,0,5.62,2.52,5.62,5.62
						S1877.17,209.1,1874.07,209.1z"/>
					<path class="st8" d="M1874.07,241.95c-3.11,0-5.62-2.52-5.62-5.62s2.52-5.62,5.62-5.62c3.11,0,5.62,2.52,5.62,5.62
						S1877.17,241.95,1874.07,241.95z"/>
					<path class="st8" d="M1874.07,274.79c-3.11,0-5.62-2.52-5.62-5.62c0-3.11,2.52-5.62,5.62-5.62c3.11,0,5.62,2.52,5.62,5.62
						C1879.69,272.27,1877.17,274.79,1874.07,274.79z"/>
					<path class="st8" d="M1874.07,307.64c-3.11,0-5.62-2.52-5.62-5.62c0-3.11,2.52-5.62,5.62-5.62c3.11,0,5.62,2.52,5.62,5.62
						C1879.69,305.12,1877.17,307.64,1874.07,307.64z"/>
					<path class="st8" d="M1874.07,340.48c-3.11,0-5.62-2.52-5.62-5.62s2.52-5.62,5.62-5.62c3.11,0,5.62,2.52,5.62,5.62
						S1877.17,340.48,1874.07,340.48z"/>
					<path class="st8" d="M1874.07,373.33c-3.11,0-5.62-2.52-5.62-5.62c0-3.11,2.52-5.62,5.62-5.62c3.11,0,5.62,2.52,5.62,5.62
						C1879.69,370.81,1877.17,373.33,1874.07,373.33z"/>
					<path class="st8" d="M1874.07,406.17c-3.11,0-5.62-2.52-5.62-5.62s2.52-5.62,5.62-5.62c3.11,0,5.62,2.52,5.62,5.62
						S1877.17,406.17,1874.07,406.17z"/>
					<path class="st8" d="M1874.07,439.02c-3.11,0-5.62-2.52-5.62-5.62c0-3.11,2.52-5.62,5.62-5.62c3.11,0,5.62,2.52,5.62,5.62
						C1879.69,436.5,1877.17,439.02,1874.07,439.02z"/>
					<path class="st8" d="M1841.22,209.1c-3.11,0-5.62-2.52-5.62-5.62s2.52-5.62,5.62-5.62c3.11,0,5.62,2.52,5.62,5.62
						S1844.33,209.1,1841.22,209.1z"/>
					<path class="st8" d="M1841.22,241.95c-3.11,0-5.62-2.52-5.62-5.62s2.52-5.62,5.62-5.62c3.11,0,5.62,2.52,5.62,5.62
						S1844.33,241.95,1841.22,241.95z"/>
					<path class="st8" d="M1841.22,274.79c-3.11,0-5.62-2.52-5.62-5.62c0-3.11,2.52-5.62,5.62-5.62c3.11,0,5.62,2.52,5.62,5.62
						C1846.84,272.27,1844.33,274.79,1841.22,274.79z"/>
					<path class="st8" d="M1841.22,307.64c-3.11,0-5.62-2.52-5.62-5.62c0-3.11,2.52-5.62,5.62-5.62c3.11,0,5.62,2.52,5.62,5.62
						C1846.84,305.12,1844.33,307.64,1841.22,307.64z"/>
					<path class="st8" d="M1841.22,340.48c-3.11,0-5.62-2.52-5.62-5.62s2.52-5.62,5.62-5.62c3.11,0,5.62,2.52,5.62,5.62
						S1844.33,340.48,1841.22,340.48z"/>
					<path class="st8" d="M1841.22,373.33c-3.11,0-5.62-2.52-5.62-5.62c0-3.11,2.52-5.62,5.62-5.62c3.11,0,5.62,2.52,5.62,5.62
						C1846.84,370.81,1844.33,373.33,1841.22,373.33z"/>
					<path class="st8" d="M1841.22,406.17c-3.11,0-5.62-2.52-5.62-5.62s2.52-5.62,5.62-5.62c3.11,0,5.62,2.52,5.62,5.62
						S1844.33,406.17,1841.22,406.17z"/>
					<path class="st8" d="M1841.22,439.02c-3.11,0-5.62-2.52-5.62-5.62c0-3.11,2.52-5.62,5.62-5.62c3.11,0,5.62,2.52,5.62,5.62
						C1846.84,436.5,1844.33,439.02,1841.22,439.02z"/>
					<path class="st8" d="M1808.37,209.1c-3.11,0-5.62-2.52-5.62-5.62s2.52-5.62,5.62-5.62c3.11,0,5.62,2.52,5.62,5.62
						S1811.48,209.1,1808.37,209.1z"/>
					<path class="st8" d="M1808.37,241.95c-3.11,0-5.62-2.52-5.62-5.62s2.52-5.62,5.62-5.62c3.11,0,5.62,2.52,5.62,5.62
						S1811.48,241.95,1808.37,241.95z"/>
					<path class="st8" d="M1808.37,274.79c-3.11,0-5.62-2.52-5.62-5.62c0-3.11,2.52-5.62,5.62-5.62c3.11,0,5.62,2.52,5.62,5.62
						C1814,272.27,1811.48,274.79,1808.37,274.79z"/>
					<path class="st8" d="M1808.37,307.64c-3.11,0-5.62-2.52-5.62-5.62c0-3.11,2.52-5.62,5.62-5.62c3.11,0,5.62,2.52,5.62,5.62
						C1814,305.12,1811.48,307.64,1808.37,307.64z"/>
					<path class="st8" d="M1808.37,340.48c-3.11,0-5.62-2.52-5.62-5.62s2.52-5.62,5.62-5.62c3.11,0,5.62,2.52,5.62,5.62
						S1811.48,340.48,1808.37,340.48z"/>
					<path class="st8" d="M1808.37,373.33c-3.11,0-5.62-2.52-5.62-5.62c0-3.11,2.52-5.62,5.62-5.62c3.11,0,5.62,2.52,5.62,5.62
						C1814,370.81,1811.48,373.33,1808.37,373.33z"/>
					<path class="st8" d="M1808.37,406.17c-3.11,0-5.62-2.52-5.62-5.62s2.52-5.62,5.62-5.62c3.11,0,5.62,2.52,5.62,5.62
						S1811.48,406.17,1808.37,406.17z"/>
					<path class="st8" d="M1808.37,439.02c-3.11,0-5.62-2.52-5.62-5.62c0-3.11,2.52-5.62,5.62-5.62c3.11,0,5.62,2.52,5.62,5.62
						C1814,436.5,1811.48,439.02,1808.37,439.02z"/>
					<path class="st8" d="M1775.53,209.1c-3.11,0-5.62-2.52-5.62-5.62s2.52-5.62,5.62-5.62c3.11,0,5.62,2.52,5.62,5.62
						S1778.64,209.1,1775.53,209.1z"/>
					<path class="st8" d="M1775.53,241.95c-3.11,0-5.62-2.52-5.62-5.62s2.52-5.62,5.62-5.62c3.11,0,5.62,2.52,5.62,5.62
						S1778.64,241.95,1775.53,241.95z"/>
					<path class="st8" d="M1775.53,274.79c-3.11,0-5.62-2.52-5.62-5.62c0-3.11,2.52-5.62,5.62-5.62c3.11,0,5.62,2.52,5.62,5.62
						C1781.15,272.27,1778.64,274.79,1775.53,274.79z"/>
					<path class="st8" d="M1775.53,307.64c-3.11,0-5.62-2.52-5.62-5.62c0-3.11,2.52-5.62,5.62-5.62c3.11,0,5.62,2.52,5.62,5.62
						C1781.15,305.12,1778.64,307.64,1775.53,307.64z"/>
					<path class="st8" d="M1775.53,340.48c-3.11,0-5.62-2.52-5.62-5.62s2.52-5.62,5.62-5.62c3.11,0,5.62,2.52,5.62,5.62
						S1778.64,340.48,1775.53,340.48z"/>
					<path class="st8" d="M1775.53,373.33c-3.11,0-5.62-2.52-5.62-5.62c0-3.11,2.52-5.62,5.62-5.62c3.11,0,5.62,2.52,5.62,5.62
						C1781.15,370.81,1778.64,373.33,1775.53,373.33z"/>
					<path class="st8" d="M1775.53,406.17c-3.11,0-5.62-2.52-5.62-5.62s2.52-5.62,5.62-5.62c3.11,0,5.62,2.52,5.62,5.62
						S1778.64,406.17,1775.53,406.17z"/>
					<path class="st8" d="M1775.53,439.02c-3.11,0-5.62-2.52-5.62-5.62c0-3.11,2.52-5.62,5.62-5.62c3.11,0,5.62,2.52,5.62,5.62
						C1781.15,436.5,1778.64,439.02,1775.53,439.02z"/>
					<path class="st8" d="M1742.68,209.1c-3.11,0-5.62-2.52-5.62-5.62s2.52-5.62,5.62-5.62c3.11,0,5.62,2.52,5.62,5.62
						S1745.79,209.1,1742.68,209.1z"/>
					<path class="st8" d="M1742.68,241.95c-3.11,0-5.62-2.52-5.62-5.62s2.52-5.62,5.62-5.62c3.11,0,5.62,2.52,5.62,5.62
						S1745.79,241.95,1742.68,241.95z"/>
					<path class="st8" d="M1742.68,274.79c-3.11,0-5.62-2.52-5.62-5.62c0-3.11,2.52-5.62,5.62-5.62c3.11,0,5.62,2.52,5.62,5.62
						C1748.31,272.27,1745.79,274.79,1742.68,274.79z"/>
					<path class="st8" d="M1742.68,307.64c-3.11,0-5.62-2.52-5.62-5.62c0-3.11,2.52-5.62,5.62-5.62c3.11,0,5.62,2.52,5.62,5.62
						C1748.31,305.12,1745.79,307.64,1742.68,307.64z"/>
					<path class="st8" d="M1742.68,340.48c-3.11,0-5.62-2.52-5.62-5.62s2.52-5.62,5.62-5.62c3.11,0,5.62,2.52,5.62,5.62
						S1745.79,340.48,1742.68,340.48z"/>
					<path class="st8" d="M1742.68,373.33c-3.11,0-5.62-2.52-5.62-5.62c0-3.11,2.52-5.62,5.62-5.62c3.11,0,5.62,2.52,5.62,5.62
						C1748.31,370.81,1745.79,373.33,1742.68,373.33z"/>
					<path class="st8" d="M1742.68,406.17c-3.11,0-5.62-2.52-5.62-5.62s2.52-5.62,5.62-5.62c3.11,0,5.62,2.52,5.62,5.62
						S1745.79,406.17,1742.68,406.17z"/>
					<path class="st8" d="M1742.68,439.02c-3.11,0-5.62-2.52-5.62-5.62c0-3.11,2.52-5.62,5.62-5.62c3.11,0,5.62,2.52,5.62,5.62
						C1748.31,436.5,1745.79,439.02,1742.68,439.02z"/>
				</g>
				<g>
					<path class="st8" d="M1734.61,47.05c0-3.11,2.52-5.62,5.62-5.62c3.11,0,5.62,2.52,5.62,5.62c0,3.11-2.52,5.62-5.62,5.62
						C1737.13,52.67,1734.61,50.15,1734.61,47.05z"/>
					<path class="st8" d="M1701.77,47.05c0-3.11,2.52-5.62,5.62-5.62c3.11,0,5.62,2.52,5.62,5.62c0,3.11-2.52,5.62-5.62,5.62
						C1704.28,52.67,1701.77,50.15,1701.77,47.05z"/>
					<path class="st8" d="M1668.92,47.05c0-3.11,2.52-5.62,5.62-5.62c3.11,0,5.62,2.52,5.62,5.62c0,3.11-2.52,5.62-5.62,5.62
						C1671.44,52.67,1668.92,50.15,1668.92,47.05z"/>
					<path class="st8" d="M1636.08,47.05c0-3.11,2.52-5.62,5.62-5.62c3.11,0,5.62,2.52,5.62,5.62c0,3.11-2.52,5.62-5.62,5.62
						C1638.59,52.67,1636.08,50.15,1636.08,47.05z"/>
					<path class="st8" d="M1603.23,47.05c0-3.11,2.52-5.62,5.62-5.62c3.11,0,5.62,2.52,5.62,5.62c0,3.11-2.52,5.62-5.62,5.62
						C1605.75,52.67,1603.23,50.15,1603.23,47.05z"/>
					<path class="st8" d="M1570.39,47.05c0-3.11,2.52-5.62,5.62-5.62c3.11,0,5.62,2.52,5.62,5.62c0,3.11-2.52,5.62-5.62,5.62
						C1572.9,52.67,1570.39,50.15,1570.39,47.05z"/>
					<path class="st8" d="M1537.54,47.05c0-3.11,2.52-5.62,5.62-5.62c3.11,0,5.62,2.52,5.62,5.62c0,3.11-2.52,5.62-5.62,5.62
						C1540.06,52.67,1537.54,50.15,1537.54,47.05z"/>
					<path class="st8" d="M1504.69,47.05c0-3.11,2.52-5.62,5.62-5.62s5.62,2.52,5.62,5.62c0,3.11-2.52,5.62-5.62,5.62
						S1504.69,50.15,1504.69,47.05z"/>
					<path class="st8" d="M1734.61,14.2c0-3.11,2.52-5.62,5.62-5.62c3.11,0,5.62,2.52,5.62,5.62s-2.52,5.62-5.62,5.62
						C1737.13,19.83,1734.61,17.31,1734.61,14.2z"/>
					<path class="st8" d="M1701.77,14.2c0-3.11,2.52-5.62,5.62-5.62c3.11,0,5.62,2.52,5.62,5.62s-2.52,5.62-5.62,5.62
						C1704.28,19.83,1701.77,17.31,1701.77,14.2z"/>
					<path class="st8" d="M1668.92,14.2c0-3.11,2.52-5.62,5.62-5.62c3.11,0,5.62,2.52,5.62,5.62s-2.52,5.62-5.62,5.62
						C1671.44,19.83,1668.92,17.31,1668.92,14.2z"/>
					<path class="st8" d="M1636.08,14.2c0-3.11,2.52-5.62,5.62-5.62c3.11,0,5.62,2.52,5.62,5.62s-2.52,5.62-5.62,5.62
						C1638.59,19.83,1636.08,17.31,1636.08,14.2z"/>
					<path class="st8" d="M1603.23,14.2c0-3.11,2.52-5.62,5.62-5.62c3.11,0,5.62,2.52,5.62,5.62s-2.52,5.62-5.62,5.62
						C1605.75,19.83,1603.23,17.31,1603.23,14.2z"/>
					<path class="st8" d="M1570.39,14.2c0-3.11,2.52-5.62,5.62-5.62c3.11,0,5.62,2.52,5.62,5.62s-2.52,5.62-5.62,5.62
						C1572.9,19.83,1570.39,17.31,1570.39,14.2z"/>
					<path class="st8" d="M1537.54,14.2c0-3.11,2.52-5.62,5.62-5.62c3.11,0,5.62,2.52,5.62,5.62s-2.52,5.62-5.62,5.62
						C1540.06,19.83,1537.54,17.31,1537.54,14.2z"/>
					<path class="st8" d="M1504.69,14.2c0-3.11,2.52-5.62,5.62-5.62s5.62,2.52,5.62,5.62s-2.52,5.62-5.62,5.62
						S1504.69,17.31,1504.69,14.2z"/>
					<circle class="st8" cx="1740.24" cy="-18.64" r="5.62"/>
					<path class="st8" d="M1701.77-18.64c0-3.11,2.52-5.62,5.62-5.62c3.11,0,5.62,2.52,5.62,5.62s-2.52,5.62-5.62,5.62
						C1704.28-13.02,1701.77-15.54,1701.77-18.64z"/>
					<path class="st8" d="M1668.92-18.64c0-3.11,2.52-5.62,5.62-5.62c3.11,0,5.62,2.52,5.62,5.62s-2.52,5.62-5.62,5.62
						C1671.44-13.02,1668.92-15.54,1668.92-18.64z"/>
					<path class="st8" d="M1636.08-18.64c0-3.11,2.52-5.62,5.62-5.62c3.11,0,5.62,2.52,5.62,5.62s-2.52,5.62-5.62,5.62
						C1638.59-13.02,1636.08-15.54,1636.08-18.64z"/>
					<path class="st8" d="M1603.23-18.64c0-3.11,2.52-5.62,5.62-5.62c3.11,0,5.62,2.52,5.62,5.62s-2.52,5.62-5.62,5.62
						C1605.75-13.02,1603.23-15.54,1603.23-18.64z"/>
					<path class="st8" d="M1570.39-18.64c0-3.11,2.52-5.62,5.62-5.62c3.11,0,5.62,2.52,5.62,5.62s-2.52,5.62-5.62,5.62
						C1572.9-13.02,1570.39-15.54,1570.39-18.64z"/>
					<path class="st8" d="M1537.54-18.64c0-3.11,2.52-5.62,5.62-5.62c3.11,0,5.62,2.52,5.62,5.62s-2.52,5.62-5.62,5.62
						C1540.06-13.02,1537.54-15.54,1537.54-18.64z"/>
					<path class="st8" d="M1504.69-18.64c0-3.11,2.52-5.62,5.62-5.62s5.62,2.52,5.62,5.62s-2.52,5.62-5.62,5.62
						S1504.69-15.54,1504.69-18.64z"/>
					<path class="st8" d="M1734.61-51.49c0-3.11,2.52-5.62,5.62-5.62c3.11,0,5.62,2.52,5.62,5.62c0,3.11-2.52,5.62-5.62,5.62
						C1737.13-45.86,1734.61-48.38,1734.61-51.49z"/>
					<path class="st8" d="M1701.77-51.49c0-3.11,2.52-5.62,5.62-5.62c3.11,0,5.62,2.52,5.62,5.62c0,3.11-2.52,5.62-5.62,5.62
						C1704.28-45.86,1701.77-48.38,1701.77-51.49z"/>
					<path class="st8" d="M1668.92-51.49c0-3.11,2.52-5.62,5.62-5.62c3.11,0,5.62,2.52,5.62,5.62c0,3.11-2.52,5.62-5.62,5.62
						C1671.44-45.86,1668.92-48.38,1668.92-51.49z"/>
					<path class="st8" d="M1636.08-51.49c0-3.11,2.52-5.62,5.62-5.62c3.11,0,5.62,2.52,5.62,5.62c0,3.11-2.52,5.62-5.62,5.62
						C1638.59-45.86,1636.08-48.38,1636.08-51.49z"/>
					<path class="st8" d="M1603.23-51.49c0-3.11,2.52-5.62,5.62-5.62c3.11,0,5.62,2.52,5.62,5.62c0,3.11-2.52,5.62-5.62,5.62
						C1605.75-45.86,1603.23-48.38,1603.23-51.49z"/>
					<path class="st8" d="M1570.39-51.49c0-3.11,2.52-5.62,5.62-5.62c3.11,0,5.62,2.52,5.62,5.62c0,3.11-2.52,5.62-5.62,5.62
						C1572.9-45.86,1570.39-48.38,1570.39-51.49z"/>
					<path class="st8" d="M1537.54-51.49c0-3.11,2.52-5.62,5.62-5.62c3.11,0,5.62,2.52,5.62,5.62c0,3.11-2.52,5.62-5.62,5.62
						C1540.06-45.86,1537.54-48.38,1537.54-51.49z"/>
					<path class="st8" d="M1504.69-51.49c0-3.11,2.52-5.62,5.62-5.62s5.62,2.52,5.62,5.62c0,3.11-2.52,5.62-5.62,5.62
						S1504.69-48.38,1504.69-51.49z"/>
					<path class="st8" d="M1734.61-84.33c0-3.11,2.52-5.62,5.62-5.62c3.11,0,5.62,2.52,5.62,5.62c0,3.11-2.52,5.62-5.62,5.62
						C1737.13-78.71,1734.61-81.23,1734.61-84.33z"/>
					<path class="st8" d="M1701.77-84.33c0-3.11,2.52-5.62,5.62-5.62c3.11,0,5.62,2.52,5.62,5.62c0,3.11-2.52,5.62-5.62,5.62
						C1704.28-78.71,1701.77-81.23,1701.77-84.33z"/>
					<path class="st8" d="M1668.92-84.33c0-3.11,2.52-5.62,5.62-5.62c3.11,0,5.62,2.52,5.62,5.62c0,3.11-2.52,5.62-5.62,5.62
						C1671.44-78.71,1668.92-81.23,1668.92-84.33z"/>
					<path class="st8" d="M1636.08-84.33c0-3.11,2.52-5.62,5.62-5.62c3.11,0,5.62,2.52,5.62,5.62c0,3.11-2.52,5.62-5.62,5.62
						C1638.59-78.71,1636.08-81.23,1636.08-84.33z"/>
					<path class="st8" d="M1603.23-84.33c0-3.11,2.52-5.62,5.62-5.62c3.11,0,5.62,2.52,5.62,5.62c0,3.11-2.52,5.62-5.62,5.62
						C1605.75-78.71,1603.23-81.23,1603.23-84.33z"/>
					<path class="st8" d="M1570.39-84.33c0-3.11,2.52-5.62,5.62-5.62c3.11,0,5.62,2.52,5.62,5.62c0,3.11-2.52,5.62-5.62,5.62
						C1572.9-78.71,1570.39-81.23,1570.39-84.33z"/>
					<path class="st8" d="M1537.54-84.33c0-3.11,2.52-5.62,5.62-5.62c3.11,0,5.62,2.52,5.62,5.62c0,3.11-2.52,5.62-5.62,5.62
						C1540.06-78.71,1537.54-81.23,1537.54-84.33z"/>
					<path class="st8" d="M1504.69-84.33c0-3.11,2.52-5.62,5.62-5.62s5.62,2.52,5.62,5.62c0,3.11-2.52,5.62-5.62,5.62
						S1504.69-81.23,1504.69-84.33z"/>
				</g>
				<g>
					<defs>
						<circle id="SVGID_9_" cx="1390.42" cy="693.51" r="152.97"/>
					</defs>
					<clipPath id="SVGID_10_">
						<use xlink:href="#SVGID_9_"  style="overflow:visible;"/>
					</clipPath>
					<g class="st9">
						<line class="st7" x1="1241.46" y1="435.35" x2="710.55" y2="966.26"/>
						<line class="st7" x1="1248.48" y1="435.35" x2="717.57" y2="966.26"/>
						<line class="st7" x1="1255.5" y1="435.35" x2="724.59" y2="966.26"/>
						<line class="st7" x1="1262.52" y1="435.35" x2="731.61" y2="966.26"/>
						<line class="st7" x1="1269.54" y1="435.35" x2="738.63" y2="966.26"/>
						<line class="st7" x1="1276.57" y1="435.35" x2="745.66" y2="966.26"/>
						<line class="st7" x1="1283.59" y1="435.35" x2="752.68" y2="966.26"/>
						<line class="st7" x1="1290.61" y1="435.35" x2="759.7" y2="966.26"/>
						<line class="st7" x1="1297.63" y1="435.35" x2="766.72" y2="966.26"/>
						<line class="st7" x1="1304.65" y1="435.35" x2="773.74" y2="966.26"/>
						<line class="st7" x1="1311.68" y1="435.35" x2="780.77" y2="966.26"/>
						<line class="st7" x1="1318.7" y1="435.35" x2="787.79" y2="966.26"/>
						<line class="st7" x1="1325.72" y1="435.35" x2="794.81" y2="966.26"/>
						<line class="st7" x1="1332.74" y1="435.35" x2="801.83" y2="966.26"/>
						<line class="st7" x1="1339.76" y1="435.35" x2="808.85" y2="966.26"/>
						<line class="st7" x1="1346.78" y1="435.35" x2="815.88" y2="966.26"/>
						<line class="st7" x1="1353.81" y1="435.35" x2="822.9" y2="966.26"/>
						<line class="st7" x1="1360.83" y1="435.35" x2="829.92" y2="966.26"/>
						<line class="st7" x1="1367.85" y1="435.35" x2="836.94" y2="966.26"/>
						<line class="st7" x1="1374.87" y1="435.35" x2="843.96" y2="966.26"/>
						<line class="st7" x1="1381.89" y1="435.35" x2="850.98" y2="966.26"/>
						<line class="st7" x1="1388.92" y1="435.35" x2="858.01" y2="966.26"/>
						<line class="st7" x1="1395.94" y1="435.35" x2="865.03" y2="966.26"/>
						<line class="st7" x1="1402.96" y1="435.35" x2="872.05" y2="966.26"/>
						<line class="st7" x1="1409.98" y1="435.35" x2="879.07" y2="966.26"/>
						<line class="st7" x1="1417" y1="435.35" x2="886.09" y2="966.26"/>
						<line class="st7" x1="1424.03" y1="435.35" x2="893.12" y2="966.26"/>
						<line class="st7" x1="1431.05" y1="435.35" x2="900.14" y2="966.26"/>
						<line class="st7" x1="1438.07" y1="435.35" x2="907.16" y2="966.26"/>
						<line class="st7" x1="1445.09" y1="435.35" x2="914.18" y2="966.26"/>
						<line class="st7" x1="1452.11" y1="435.35" x2="921.2" y2="966.26"/>
						<line class="st7" x1="1459.13" y1="435.35" x2="928.22" y2="966.26"/>
						<line class="st7" x1="1466.16" y1="435.35" x2="935.25" y2="966.26"/>
						<line class="st7" x1="1473.18" y1="435.35" x2="942.27" y2="966.26"/>
						<line class="st7" x1="1480.2" y1="435.35" x2="949.29" y2="966.26"/>
						<line class="st7" x1="1487.22" y1="435.35" x2="956.31" y2="966.26"/>
						<line class="st7" x1="1494.24" y1="435.35" x2="963.33" y2="966.26"/>
						<line class="st7" x1="1501.27" y1="435.35" x2="970.36" y2="966.26"/>
						<line class="st7" x1="1508.29" y1="435.35" x2="977.38" y2="966.26"/>
						<line class="st7" x1="1515.31" y1="435.35" x2="984.4" y2="966.26"/>
						<line class="st7" x1="1522.33" y1="435.35" x2="991.42" y2="966.26"/>
						<line class="st7" x1="1529.35" y1="435.35" x2="998.44" y2="966.26"/>
						<line class="st7" x1="1536.37" y1="435.35" x2="1005.47" y2="966.26"/>
						<line class="st7" x1="1543.4" y1="435.35" x2="1012.49" y2="966.26"/>
						<line class="st7" x1="1550.42" y1="435.35" x2="1019.51" y2="966.26"/>
						<line class="st7" x1="1557.44" y1="435.35" x2="1026.53" y2="966.26"/>
						<line class="st7" x1="1564.46" y1="435.35" x2="1033.55" y2="966.26"/>
						<line class="st7" x1="1571.48" y1="435.35" x2="1040.57" y2="966.26"/>
						<line class="st7" x1="1578.51" y1="435.35" x2="1047.6" y2="966.26"/>
						<line class="st7" x1="1585.53" y1="435.35" x2="1054.62" y2="966.26"/>
						<line class="st7" x1="1592.55" y1="435.35" x2="1061.64" y2="966.26"/>
						<line class="st7" x1="1599.57" y1="435.35" x2="1068.66" y2="966.26"/>
						<line class="st7" x1="1606.59" y1="435.35" x2="1075.68" y2="966.26"/>
						<line class="st7" x1="1613.62" y1="435.35" x2="1082.71" y2="966.26"/>
						<line class="st7" x1="1620.64" y1="435.35" x2="1089.73" y2="966.26"/>
						<line class="st7" x1="1627.66" y1="435.35" x2="1096.75" y2="966.26"/>
						<line class="st7" x1="1634.68" y1="435.35" x2="1103.77" y2="966.26"/>
						<line class="st7" x1="1641.7" y1="435.35" x2="1110.79" y2="966.26"/>
						<line class="st7" x1="1648.72" y1="435.35" x2="1117.82" y2="966.26"/>
						<line class="st7" x1="1655.75" y1="435.35" x2="1124.84" y2="966.26"/>
						<line class="st7" x1="1662.77" y1="435.35" x2="1131.86" y2="966.26"/>
						<line class="st7" x1="1669.79" y1="435.35" x2="1138.88" y2="966.26"/>
						<line class="st7" x1="1676.81" y1="435.35" x2="1145.9" y2="966.26"/>
						<line class="st7" x1="1683.83" y1="435.35" x2="1152.92" y2="966.26"/>
						<line class="st7" x1="1690.86" y1="435.35" x2="1159.95" y2="966.26"/>
						<line class="st7" x1="1697.88" y1="435.35" x2="1166.97" y2="966.26"/>
						<line class="st7" x1="1704.9" y1="435.35" x2="1173.99" y2="966.26"/>
						<line class="st7" x1="1711.92" y1="435.35" x2="1181.01" y2="966.26"/>
						<line class="st7" x1="1718.94" y1="435.35" x2="1188.03" y2="966.26"/>
						<line class="st7" x1="1725.96" y1="435.35" x2="1195.06" y2="966.26"/>
						<line class="st7" x1="1732.99" y1="435.35" x2="1202.08" y2="966.26"/>
						<line class="st7" x1="1740.01" y1="435.35" x2="1209.1" y2="966.26"/>
						<line class="st7" x1="1747.03" y1="435.35" x2="1216.12" y2="966.26"/>
						<line class="st7" x1="1754.05" y1="435.35" x2="1223.14" y2="966.26"/>
						<line class="st7" x1="1761.07" y1="435.35" x2="1230.16" y2="966.26"/>
						<line class="st7" x1="1768.1" y1="435.35" x2="1237.19" y2="966.26"/>
						<line class="st7" x1="1775.12" y1="435.35" x2="1244.21" y2="966.26"/>
						<line class="st7" x1="1782.14" y1="435.35" x2="1251.23" y2="966.26"/>
						<line class="st7" x1="1789.16" y1="435.35" x2="1258.25" y2="966.26"/>
						<line class="st7" x1="1796.18" y1="435.35" x2="1265.27" y2="966.26"/>
						<line class="st7" x1="1803.21" y1="435.35" x2="1272.3" y2="966.26"/>
						<line class="st7" x1="1810.23" y1="435.35" x2="1279.32" y2="966.26"/>
						<line class="st7" x1="1817.25" y1="435.35" x2="1286.34" y2="966.26"/>
						<line class="st7" x1="1824.27" y1="435.35" x2="1293.36" y2="966.26"/>
						<line class="st7" x1="1831.29" y1="435.35" x2="1300.38" y2="966.26"/>
						<line class="st7" x1="1838.31" y1="435.35" x2="1307.41" y2="966.26"/>
						<line class="st7" x1="1845.34" y1="435.35" x2="1314.43" y2="966.26"/>
						<line class="st7" x1="1852.36" y1="435.35" x2="1321.45" y2="966.26"/>
						<line class="st7" x1="1859.38" y1="435.35" x2="1328.47" y2="966.26"/>
						<line class="st7" x1="1866.4" y1="435.35" x2="1335.49" y2="966.26"/>
						<line class="st7" x1="1873.42" y1="435.35" x2="1342.51" y2="966.26"/>
						<line class="st7" x1="1880.45" y1="435.35" x2="1349.54" y2="966.26"/>
						<line class="st7" x1="1887.47" y1="435.35" x2="1356.56" y2="966.26"/>
						<line class="st7" x1="1894.49" y1="435.35" x2="1363.58" y2="966.26"/>
						<line class="st7" x1="1901.51" y1="435.35" x2="1370.6" y2="966.26"/>
						<line class="st7" x1="1908.53" y1="435.35" x2="1377.62" y2="966.26"/>
						<line class="st7" x1="1915.56" y1="435.35" x2="1384.65" y2="966.26"/>
						<line class="st7" x1="1922.58" y1="435.35" x2="1391.67" y2="966.26"/>
						<line class="st7" x1="1929.6" y1="435.35" x2="1398.69" y2="966.26"/>
						<line class="st7" x1="1936.62" y1="435.35" x2="1405.71" y2="966.26"/>
						<line class="st7" x1="1943.64" y1="435.35" x2="1412.73" y2="966.26"/>
						<line class="st7" x1="1950.66" y1="435.35" x2="1419.76" y2="966.26"/>
						<line class="st7" x1="1957.69" y1="435.35" x2="1426.78" y2="966.26"/>
						<line class="st7" x1="1964.71" y1="435.35" x2="1433.8" y2="966.26"/>
						<line class="st7" x1="1971.73" y1="435.35" x2="1440.82" y2="966.26"/>
					</g>
				</g>
				<g>
					<defs>
						
							<ellipse id="SVGID_11_" transform="matrix(0.7071 -0.7071 0.7071 0.7071 320.999 682.3254)" cx="984.14" cy="-46.32" rx="152.98" ry="152.98"/>
					</defs>
					<clipPath id="SVGID_12_">
						<use xlink:href="#SVGID_11_"  style="overflow:visible;"/>
					</clipPath>
					<g class="st10">
						<line class="st7" x1="835.17" y1="-304.49" x2="304.26" y2="226.42"/>
						<line class="st7" x1="842.19" y1="-304.49" x2="311.28" y2="226.42"/>
						<line class="st7" x1="849.21" y1="-304.49" x2="318.31" y2="226.42"/>
						<line class="st7" x1="856.24" y1="-304.49" x2="325.33" y2="226.42"/>
						<line class="st7" x1="863.26" y1="-304.49" x2="332.35" y2="226.42"/>
						<line class="st7" x1="870.28" y1="-304.49" x2="339.37" y2="226.42"/>
						<line class="st7" x1="877.3" y1="-304.49" x2="346.39" y2="226.42"/>
						<line class="st7" x1="884.32" y1="-304.49" x2="353.41" y2="226.42"/>
						<line class="st7" x1="891.35" y1="-304.49" x2="360.44" y2="226.42"/>
						<line class="st7" x1="898.37" y1="-304.49" x2="367.46" y2="226.42"/>
						<line class="st7" x1="905.39" y1="-304.49" x2="374.48" y2="226.42"/>
						<line class="st7" x1="912.41" y1="-304.49" x2="381.5" y2="226.42"/>
						<line class="st7" x1="919.43" y1="-304.49" x2="388.52" y2="226.42"/>
						<line class="st7" x1="926.46" y1="-304.49" x2="395.55" y2="226.42"/>
						<line class="st7" x1="933.48" y1="-304.49" x2="402.57" y2="226.42"/>
						<line class="st7" x1="940.5" y1="-304.49" x2="409.59" y2="226.42"/>
						<line class="st7" x1="947.52" y1="-304.49" x2="416.61" y2="226.42"/>
						<line class="st7" x1="954.54" y1="-304.49" x2="423.63" y2="226.42"/>
						<line class="st7" x1="961.56" y1="-304.49" x2="430.66" y2="226.42"/>
						<line class="st7" x1="968.59" y1="-304.49" x2="437.68" y2="226.42"/>
						<line class="st7" x1="975.61" y1="-304.49" x2="444.7" y2="226.42"/>
						<line class="st7" x1="982.63" y1="-304.49" x2="451.72" y2="226.42"/>
						<line class="st7" x1="989.65" y1="-304.49" x2="458.74" y2="226.42"/>
						<line class="st7" x1="996.67" y1="-304.49" x2="465.76" y2="226.42"/>
						<line class="st7" x1="1003.7" y1="-304.49" x2="472.79" y2="226.42"/>
						<line class="st7" x1="1010.72" y1="-304.49" x2="479.81" y2="226.42"/>
						<line class="st7" x1="1017.74" y1="-304.49" x2="486.83" y2="226.42"/>
						<line class="st7" x1="1024.76" y1="-304.49" x2="493.85" y2="226.42"/>
						<line class="st7" x1="1031.78" y1="-304.49" x2="500.87" y2="226.42"/>
						<line class="st7" x1="1038.8" y1="-304.49" x2="507.9" y2="226.42"/>
						<line class="st7" x1="1045.83" y1="-304.49" x2="514.92" y2="226.42"/>
						<line class="st7" x1="1052.85" y1="-304.49" x2="521.94" y2="226.42"/>
						<line class="st7" x1="1059.87" y1="-304.49" x2="528.96" y2="226.42"/>
						<line class="st7" x1="1066.89" y1="-304.49" x2="535.98" y2="226.42"/>
						<line class="st7" x1="1073.91" y1="-304.49" x2="543" y2="226.42"/>
						<line class="st7" x1="1080.94" y1="-304.49" x2="550.03" y2="226.42"/>
						<line class="st7" x1="1087.96" y1="-304.49" x2="557.05" y2="226.42"/>
						<line class="st7" x1="1094.98" y1="-304.49" x2="564.07" y2="226.42"/>
						<line class="st7" x1="1102" y1="-304.49" x2="571.09" y2="226.42"/>
						<line class="st7" x1="1109.02" y1="-304.49" x2="578.11" y2="226.42"/>
						<line class="st7" x1="1116.05" y1="-304.49" x2="585.14" y2="226.42"/>
						<line class="st7" x1="1123.07" y1="-304.49" x2="592.16" y2="226.42"/>
						<line class="st7" x1="1130.09" y1="-304.49" x2="599.18" y2="226.42"/>
						<line class="st7" x1="1137.11" y1="-304.49" x2="606.2" y2="226.42"/>
						<line class="st7" x1="1144.13" y1="-304.49" x2="613.22" y2="226.42"/>
						<line class="st7" x1="1151.15" y1="-304.49" x2="620.25" y2="226.42"/>
						<line class="st7" x1="1158.18" y1="-304.49" x2="627.27" y2="226.42"/>
						<line class="st7" x1="1165.2" y1="-304.49" x2="634.29" y2="226.42"/>
						<line class="st7" x1="1172.22" y1="-304.49" x2="641.31" y2="226.42"/>
						<line class="st7" x1="1179.24" y1="-304.49" x2="648.33" y2="226.42"/>
						<line class="st7" x1="1186.26" y1="-304.49" x2="655.35" y2="226.42"/>
						<line class="st7" x1="1193.29" y1="-304.49" x2="662.38" y2="226.42"/>
						<line class="st7" x1="1200.31" y1="-304.49" x2="669.4" y2="226.42"/>
						<line class="st7" x1="1207.33" y1="-304.49" x2="676.42" y2="226.42"/>
						<line class="st7" x1="1214.35" y1="-304.49" x2="683.44" y2="226.42"/>
						<line class="st7" x1="1221.37" y1="-304.49" x2="690.46" y2="226.42"/>
						<line class="st7" x1="1228.4" y1="-304.49" x2="697.49" y2="226.42"/>
						<line class="st7" x1="1235.42" y1="-304.49" x2="704.51" y2="226.42"/>
						<line class="st7" x1="1242.44" y1="-304.49" x2="711.53" y2="226.42"/>
						<line class="st7" x1="1249.46" y1="-304.49" x2="718.55" y2="226.42"/>
						<line class="st7" x1="1256.48" y1="-304.49" x2="725.57" y2="226.42"/>
						<line class="st7" x1="1263.5" y1="-304.49" x2="732.59" y2="226.42"/>
						<line class="st7" x1="1270.53" y1="-304.49" x2="739.62" y2="226.42"/>
						<line class="st7" x1="1277.55" y1="-304.49" x2="746.64" y2="226.42"/>
						<line class="st7" x1="1284.57" y1="-304.49" x2="753.66" y2="226.42"/>
						<line class="st7" x1="1291.59" y1="-304.49" x2="760.68" y2="226.42"/>
						<line class="st7" x1="1298.61" y1="-304.49" x2="767.7" y2="226.42"/>
						<line class="st7" x1="1305.64" y1="-304.49" x2="774.73" y2="226.42"/>
						<line class="st7" x1="1312.66" y1="-304.49" x2="781.75" y2="226.42"/>
						<line class="st7" x1="1319.68" y1="-304.49" x2="788.77" y2="226.42"/>
						<line class="st7" x1="1326.7" y1="-304.49" x2="795.79" y2="226.42"/>
						<line class="st7" x1="1333.72" y1="-304.49" x2="802.81" y2="226.42"/>
						<line class="st7" x1="1340.74" y1="-304.49" x2="809.84" y2="226.42"/>
						<line class="st7" x1="1347.77" y1="-304.49" x2="816.86" y2="226.42"/>
						<line class="st7" x1="1354.79" y1="-304.49" x2="823.88" y2="226.42"/>
						<line class="st7" x1="1361.81" y1="-304.49" x2="830.9" y2="226.42"/>
						<line class="st7" x1="1368.83" y1="-304.49" x2="837.92" y2="226.42"/>
						<line class="st7" x1="1375.85" y1="-304.49" x2="844.94" y2="226.42"/>
						<line class="st7" x1="1382.88" y1="-304.49" x2="851.97" y2="226.42"/>
						<line class="st7" x1="1389.9" y1="-304.49" x2="858.99" y2="226.42"/>
						<line class="st7" x1="1396.92" y1="-304.49" x2="866.01" y2="226.42"/>
						<line class="st7" x1="1403.94" y1="-304.49" x2="873.03" y2="226.42"/>
						<line class="st7" x1="1410.96" y1="-304.49" x2="880.05" y2="226.42"/>
						<line class="st7" x1="1417.99" y1="-304.49" x2="887.08" y2="226.42"/>
						<line class="st7" x1="1425.01" y1="-304.49" x2="894.1" y2="226.42"/>
						<line class="st7" x1="1432.03" y1="-304.49" x2="901.12" y2="226.42"/>
						<line class="st7" x1="1439.05" y1="-304.49" x2="908.14" y2="226.42"/>
						<line class="st7" x1="1446.07" y1="-304.49" x2="915.16" y2="226.42"/>
						<line class="st7" x1="1453.09" y1="-304.49" x2="922.19" y2="226.42"/>
						<line class="st7" x1="1460.12" y1="-304.49" x2="929.21" y2="226.42"/>
						<line class="st7" x1="1467.14" y1="-304.49" x2="936.23" y2="226.42"/>
						<line class="st7" x1="1474.16" y1="-304.49" x2="943.25" y2="226.42"/>
						<line class="st7" x1="1481.18" y1="-304.49" x2="950.27" y2="226.42"/>
						<line class="st7" x1="1488.2" y1="-304.49" x2="957.29" y2="226.42"/>
						<line class="st7" x1="1495.23" y1="-304.49" x2="964.32" y2="226.42"/>
						<line class="st7" x1="1502.25" y1="-304.49" x2="971.34" y2="226.42"/>
						<line class="st7" x1="1509.27" y1="-304.49" x2="978.36" y2="226.42"/>
						<line class="st7" x1="1516.29" y1="-304.49" x2="985.38" y2="226.42"/>
						<line class="st7" x1="1523.31" y1="-304.49" x2="992.4" y2="226.42"/>
						<line class="st7" x1="1530.34" y1="-304.49" x2="999.43" y2="226.42"/>
						<line class="st7" x1="1537.36" y1="-304.49" x2="1006.45" y2="226.42"/>
						<line class="st7" x1="1544.38" y1="-304.49" x2="1013.47" y2="226.42"/>
						<line class="st7" x1="1551.4" y1="-304.49" x2="1020.49" y2="226.42"/>
						<line class="st7" x1="1558.42" y1="-304.49" x2="1027.51" y2="226.42"/>
						<line class="st7" x1="1565.44" y1="-304.49" x2="1034.53" y2="226.42"/>
					</g>
				</g>
				<g>
					<defs>
						
							<ellipse id="SVGID_13_" transform="matrix(0.7071 -0.7071 0.7071 0.7071 -237.1256 1646.0879)" cx="1868.44" cy="1109.28" rx="261.52" ry="261.52"/>
					</defs>
					<clipPath id="SVGID_14_">
						<use xlink:href="#SVGID_13_"  style="overflow:visible;"/>
					</clipPath>
					<g class="st11">
						<line class="st7" x1="1719.47" y1="851.11" x2="1188.56" y2="1382.02"/>
						<line class="st7" x1="1726.49" y1="851.11" x2="1195.59" y2="1382.02"/>
						<line class="st7" x1="1733.52" y1="851.11" x2="1202.61" y2="1382.02"/>
						<line class="st7" x1="1740.54" y1="851.11" x2="1209.63" y2="1382.02"/>
						<line class="st7" x1="1747.56" y1="851.11" x2="1216.65" y2="1382.02"/>
						<line class="st7" x1="1754.58" y1="851.11" x2="1223.67" y2="1382.02"/>
						<line class="st7" x1="1761.6" y1="851.11" x2="1230.69" y2="1382.02"/>
						<line class="st7" x1="1768.63" y1="851.11" x2="1237.72" y2="1382.02"/>
						<line class="st7" x1="1775.65" y1="851.11" x2="1244.74" y2="1382.02"/>
						<line class="st7" x1="1782.67" y1="851.11" x2="1251.76" y2="1382.02"/>
						<line class="st7" x1="1789.69" y1="851.11" x2="1258.78" y2="1382.02"/>
						<line class="st7" x1="1796.71" y1="851.11" x2="1265.8" y2="1382.02"/>
						<line class="st7" x1="1803.74" y1="851.11" x2="1272.83" y2="1382.02"/>
						<line class="st7" x1="1810.76" y1="851.11" x2="1279.85" y2="1382.02"/>
						<line class="st7" x1="1817.78" y1="851.11" x2="1286.87" y2="1382.02"/>
						<line class="st7" x1="1824.8" y1="851.11" x2="1293.89" y2="1382.02"/>
						<line class="st7" x1="1831.82" y1="851.11" x2="1300.91" y2="1382.02"/>
						<line class="st7" x1="1838.84" y1="851.11" x2="1307.93" y2="1382.02"/>
						<line class="st7" x1="1845.87" y1="851.11" x2="1314.96" y2="1382.02"/>
						<line class="st7" x1="1852.89" y1="851.11" x2="1321.98" y2="1382.02"/>
						<line class="st7" x1="1859.91" y1="851.11" x2="1329" y2="1382.02"/>
						<line class="st7" x1="1866.93" y1="851.11" x2="1336.02" y2="1382.02"/>
						<line class="st7" x1="1873.95" y1="851.11" x2="1343.04" y2="1382.02"/>
						<line class="st7" x1="1880.98" y1="851.11" x2="1350.07" y2="1382.02"/>
						<line class="st7" x1="1888" y1="851.11" x2="1357.09" y2="1382.02"/>
						<line class="st7" x1="1895.02" y1="851.11" x2="1364.11" y2="1382.02"/>
						<line class="st7" x1="1902.04" y1="851.11" x2="1371.13" y2="1382.02"/>
						<line class="st7" x1="1909.06" y1="851.11" x2="1378.15" y2="1382.02"/>
						<line class="st7" x1="1916.09" y1="851.11" x2="1385.18" y2="1382.02"/>
						<line class="st7" x1="1923.11" y1="851.11" x2="1392.2" y2="1382.02"/>
						<line class="st7" x1="1930.13" y1="851.11" x2="1399.22" y2="1382.02"/>
						<line class="st7" x1="1937.15" y1="851.11" x2="1406.24" y2="1382.02"/>
						<line class="st7" x1="1944.17" y1="851.11" x2="1413.26" y2="1382.02"/>
						<line class="st7" x1="1951.19" y1="851.11" x2="1420.28" y2="1382.02"/>
						<line class="st7" x1="1958.22" y1="851.11" x2="1427.31" y2="1382.02"/>
						<line class="st7" x1="1965.24" y1="851.11" x2="1434.33" y2="1382.02"/>
						<line class="st7" x1="1972.26" y1="851.11" x2="1441.35" y2="1382.02"/>
						<line class="st7" x1="1979.28" y1="851.11" x2="1448.37" y2="1382.02"/>
						<line class="st7" x1="1986.3" y1="851.11" x2="1455.39" y2="1382.02"/>
						<line class="st7" x1="1993.33" y1="851.11" x2="1462.42" y2="1382.02"/>
						<line class="st7" x1="2000.35" y1="851.11" x2="1469.44" y2="1382.02"/>
						<line class="st7" x1="2007.37" y1="851.11" x2="1476.46" y2="1382.02"/>
						<line class="st7" x1="2014.39" y1="851.11" x2="1483.48" y2="1382.02"/>
						<line class="st7" x1="2021.41" y1="851.11" x2="1490.5" y2="1382.02"/>
						<line class="st7" x1="2028.43" y1="851.11" x2="1497.53" y2="1382.02"/>
						<line class="st7" x1="2035.46" y1="851.11" x2="1504.55" y2="1382.02"/>
						<line class="st7" x1="2042.48" y1="851.11" x2="1511.57" y2="1382.02"/>
						<line class="st7" x1="2049.5" y1="851.11" x2="1518.59" y2="1382.02"/>
						<line class="st7" x1="2056.52" y1="851.11" x2="1525.61" y2="1382.02"/>
						<line class="st7" x1="2063.54" y1="851.11" x2="1532.63" y2="1382.02"/>
						<line class="st7" x1="2070.57" y1="851.11" x2="1539.66" y2="1382.02"/>
						<line class="st7" x1="2077.59" y1="851.11" x2="1546.68" y2="1382.02"/>
						<line class="st7" x1="2084.61" y1="851.11" x2="1553.7" y2="1382.02"/>
						<line class="st7" x1="2091.63" y1="851.11" x2="1560.72" y2="1382.02"/>
						<line class="st7" x1="2098.65" y1="851.11" x2="1567.74" y2="1382.02"/>
						<line class="st7" x1="2105.68" y1="851.11" x2="1574.77" y2="1382.02"/>
						<line class="st7" x1="2112.7" y1="851.11" x2="1581.79" y2="1382.02"/>
						<line class="st7" x1="2119.72" y1="851.11" x2="1588.81" y2="1382.02"/>
						<line class="st7" x1="2126.74" y1="851.11" x2="1595.83" y2="1382.02"/>
						<line class="st7" x1="2133.76" y1="851.11" x2="1602.85" y2="1382.02"/>
						<line class="st7" x1="2140.78" y1="851.11" x2="1609.88" y2="1382.02"/>
						<line class="st7" x1="2147.81" y1="851.11" x2="1616.9" y2="1382.02"/>
						<line class="st7" x1="2154.83" y1="851.11" x2="1623.92" y2="1382.02"/>
						<line class="st7" x1="2161.85" y1="851.11" x2="1630.94" y2="1382.02"/>
						<line class="st7" x1="2168.87" y1="851.11" x2="1637.96" y2="1382.02"/>
						<line class="st7" x1="2175.89" y1="851.11" x2="1644.98" y2="1382.02"/>
						<line class="st7" x1="2182.92" y1="851.11" x2="1652.01" y2="1382.02"/>
						<line class="st7" x1="2189.94" y1="851.11" x2="1659.03" y2="1382.02"/>
						<line class="st7" x1="2196.96" y1="851.11" x2="1666.05" y2="1382.02"/>
						<line class="st7" x1="2203.98" y1="851.11" x2="1673.07" y2="1382.02"/>
						<line class="st7" x1="2211" y1="851.11" x2="1680.09" y2="1382.02"/>
						<line class="st7" x1="2218.02" y1="851.11" x2="1687.12" y2="1382.02"/>
						<line class="st7" x1="2225.05" y1="851.11" x2="1694.14" y2="1382.02"/>
						<line class="st7" x1="2232.07" y1="851.11" x2="1701.16" y2="1382.02"/>
						<line class="st7" x1="2239.09" y1="851.11" x2="1708.18" y2="1382.02"/>
						<line class="st7" x1="2246.11" y1="851.11" x2="1715.2" y2="1382.02"/>
						<line class="st7" x1="2253.13" y1="851.11" x2="1722.22" y2="1382.02"/>
						<line class="st7" x1="2260.16" y1="851.11" x2="1729.25" y2="1382.02"/>
						<line class="st7" x1="2267.18" y1="851.11" x2="1736.27" y2="1382.02"/>
						<line class="st7" x1="2274.2" y1="851.11" x2="1743.29" y2="1382.02"/>
						<line class="st7" x1="2281.22" y1="851.11" x2="1750.31" y2="1382.02"/>
						<line class="st7" x1="2288.24" y1="851.11" x2="1757.33" y2="1382.02"/>
						<line class="st7" x1="2295.27" y1="851.11" x2="1764.36" y2="1382.02"/>
						<line class="st7" x1="2302.29" y1="851.11" x2="1771.38" y2="1382.02"/>
						<line class="st7" x1="2309.31" y1="851.11" x2="1778.4" y2="1382.02"/>
						<line class="st7" x1="2316.33" y1="851.11" x2="1785.42" y2="1382.02"/>
						<line class="st7" x1="2323.35" y1="851.11" x2="1792.44" y2="1382.02"/>
						<line class="st7" x1="2330.37" y1="851.11" x2="1799.47" y2="1382.02"/>
						<line class="st7" x1="2337.4" y1="851.11" x2="1806.49" y2="1382.02"/>
						<line class="st7" x1="2344.42" y1="851.11" x2="1813.51" y2="1382.02"/>
						<line class="st7" x1="2351.44" y1="851.11" x2="1820.53" y2="1382.02"/>
						<line class="st7" x1="2358.46" y1="851.11" x2="1827.55" y2="1382.02"/>
						<line class="st7" x1="2365.48" y1="851.11" x2="1834.57" y2="1382.02"/>
						<line class="st7" x1="2372.51" y1="851.11" x2="1841.6" y2="1382.02"/>
						<line class="st7" x1="2379.53" y1="851.11" x2="1848.62" y2="1382.02"/>
						<line class="st7" x1="2386.55" y1="851.11" x2="1855.64" y2="1382.02"/>
						<line class="st7" x1="2393.57" y1="851.11" x2="1862.66" y2="1382.02"/>
						<line class="st7" x1="2400.59" y1="851.11" x2="1869.68" y2="1382.02"/>
						<line class="st7" x1="2407.62" y1="851.11" x2="1876.71" y2="1382.02"/>
						<line class="st7" x1="2414.64" y1="851.11" x2="1883.73" y2="1382.02"/>
						<line class="st7" x1="2421.66" y1="851.11" x2="1890.75" y2="1382.02"/>
						<line class="st7" x1="2428.68" y1="851.11" x2="1897.77" y2="1382.02"/>
						<line class="st7" x1="2435.7" y1="851.11" x2="1904.79" y2="1382.02"/>
						<line class="st7" x1="2442.72" y1="851.11" x2="1911.82" y2="1382.02"/>
						<line class="st7" x1="2449.75" y1="851.11" x2="1918.84" y2="1382.02"/>
					</g>
				</g>
				<polygon class="st7" points="1818.65,562.03 1818.65,601.18 1852.55,581.61 				"/>
				<polygon class="st7" points="1557.1,188.89 1536.36,155.69 1517.98,190.26 				"/>
				<polygon class="st7" points="1610.09,899.26 1589.35,866.07 1570.97,900.63 				"/>
			</g>
		</g>
	</g>
	<linearGradient id="SVGID_15_" gradientUnits="userSpaceOnUse" x1="-18.8991" y1="1066.9266" x2="-18.8991" y2="1066.9266">
		<stop  offset="0" style="stop-color:#448AFF"/>
		<stop  offset="1" style="stop-color:#000000"/>
	</linearGradient>
	<path class="st12" d="M-18.9,1066.93"/>
	<linearGradient id="SVGID_16_" gradientUnits="userSpaceOnUse" x1="1021.7734" y1="1079.9403" x2="1021.7734" y2="1079.9403">
		<stop  offset="0" style="stop-color:#448AFF"/>
		<stop  offset="1" style="stop-color:#000000"/>
	</linearGradient>
	<path class="st13" d="M1021.77,1079.94"/>
	<linearGradient id="SVGID_17_" gradientUnits="userSpaceOnUse" x1="514.7008" y1="882.5428" x2="522.1127" y2="1132.6871">
		<stop  offset="0" style="stop-color:#448AFF"/>
		<stop  offset="0.126" style="stop-color:#3871D0"/>
		<stop  offset="0.3386" style="stop-color:#244987"/>
		<stop  offset="0.5295" style="stop-color:#152A4D"/>
		<stop  offset="0.6915" style="stop-color:#091323"/>
		<stop  offset="0.8182" style="stop-color:#030509"/>
		<stop  offset="0.8942" style="stop-color:#000000"/>
	</linearGradient>
	<path class="st14" d="M0.1,1079.93c34.03-48.22,73.87-88.34,109.81-111.13c120.82-76.6,376.16-111.29,629.7-36.42
		C854.1,966.18,957.2,1008.5,1041,1080"/>
	<rect class="st15" width="1920" height="1075"/>
</g>
</svg>
