<svg xmlns="http://www.w3.org/2000/svg" width="154.693" height="126.299" viewBox="0 0 154.693 126.299">
  <g id="Groupe_34" data-name="Groupe 34" transform="translate(-1090.082 -384.929)">
    <path id="Tracé_110" data-name="Tracé 110" d="M1101.306,391.29a4.862,4.862,0,1,1-4.862-4.861A4.862,4.862,0,0,1,1101.306,391.29Z" fill="none" stroke="#fff" stroke-miterlimit="10" stroke-width="3"/>
    <path id="Tracé_111" data-name="Tracé 111" d="M1134.118,391.29a4.862,4.862,0,1,1-4.861-4.861A4.862,4.862,0,0,1,1134.118,391.29Z" transform="translate(-4.419)" fill="none" stroke="#fff" stroke-miterlimit="10" stroke-width="3"/>
    <path id="Tracé_112" data-name="Tracé 112" d="M1166.931,391.29a4.862,4.862,0,1,1-4.862-4.861A4.863,4.863,0,0,1,1166.931,391.29Z" transform="translate(-8.837)" fill="none" stroke="#fff" stroke-miterlimit="10" stroke-width="3"/>
    <path id="Tracé_113" data-name="Tracé 113" d="M1199.743,391.29a4.862,4.862,0,1,1-4.862-4.861A4.862,4.862,0,0,1,1199.743,391.29Z" transform="translate(-13.256)" fill="none" stroke="#fff" stroke-miterlimit="10" stroke-width="3"/>
    <path id="Tracé_114" data-name="Tracé 114" d="M1232.556,391.29a4.862,4.862,0,1,1-4.862-4.861A4.863,4.863,0,0,1,1232.556,391.29Z" transform="translate(-17.674)" fill="none" stroke="#fff" stroke-miterlimit="10" stroke-width="3"/>
    <path id="Tracé_115" data-name="Tracé 115" d="M1265.368,391.29a4.862,4.862,0,1,1-4.861-4.861A4.862,4.862,0,0,1,1265.368,391.29Z" transform="translate(-22.093)" fill="none" stroke="#fff" stroke-miterlimit="10" stroke-width="3"/>
    <path id="Tracé_116" data-name="Tracé 116" d="M1101.306,424.1a4.862,4.862,0,1,1-4.862-4.862A4.862,4.862,0,0,1,1101.306,424.1Z" transform="translate(0 -4.418)" fill="none" stroke="#fff" stroke-miterlimit="10" stroke-width="3"/>
    <path id="Tracé_117" data-name="Tracé 117" d="M1134.118,424.1a4.862,4.862,0,1,1-4.861-4.862A4.862,4.862,0,0,1,1134.118,424.1Z" transform="translate(-4.419 -4.418)" fill="none" stroke="#fff" stroke-miterlimit="10" stroke-width="3"/>
    <path id="Tracé_118" data-name="Tracé 118" d="M1166.931,424.1a4.862,4.862,0,1,1-4.862-4.862A4.863,4.863,0,0,1,1166.931,424.1Z" transform="translate(-8.837 -4.418)" fill="none" stroke="#fff" stroke-miterlimit="10" stroke-width="3"/>
    <path id="Tracé_119" data-name="Tracé 119" d="M1199.743,424.1a4.862,4.862,0,1,1-4.862-4.862A4.862,4.862,0,0,1,1199.743,424.1Z" transform="translate(-13.256 -4.418)" fill="none" stroke="#fff" stroke-miterlimit="10" stroke-width="3"/>
    <path id="Tracé_120" data-name="Tracé 120" d="M1232.556,424.1a4.862,4.862,0,1,1-4.862-4.862A4.863,4.863,0,0,1,1232.556,424.1Z" transform="translate(-17.674 -4.418)" fill="none" stroke="#fff" stroke-miterlimit="10" stroke-width="3"/>
    <path id="Tracé_121" data-name="Tracé 121" d="M1265.368,424.1a4.862,4.862,0,1,1-4.861-4.862A4.862,4.862,0,0,1,1265.368,424.1Z" transform="translate(-22.093 -4.418)" fill="none" stroke="#fff" stroke-miterlimit="10" stroke-width="3"/>
    <path id="Tracé_122" data-name="Tracé 122" d="M1101.306,456.915a4.862,4.862,0,1,1-4.862-4.861A4.862,4.862,0,0,1,1101.306,456.915Z" transform="translate(0 -8.837)" fill="none" stroke="#fff" stroke-miterlimit="10" stroke-width="3"/>
    <path id="Tracé_123" data-name="Tracé 123" d="M1134.118,456.915a4.862,4.862,0,1,1-4.861-4.861A4.862,4.862,0,0,1,1134.118,456.915Z" transform="translate(-4.419 -8.837)" fill="none" stroke="#fff" stroke-miterlimit="10" stroke-width="3"/>
    <path id="Tracé_124" data-name="Tracé 124" d="M1166.931,456.915a4.862,4.862,0,1,1-4.862-4.861A4.863,4.863,0,0,1,1166.931,456.915Z" transform="translate(-8.837 -8.837)" fill="none" stroke="#fff" stroke-miterlimit="10" stroke-width="3"/>
    <path id="Tracé_125" data-name="Tracé 125" d="M1199.743,456.915a4.862,4.862,0,1,1-4.862-4.861A4.862,4.862,0,0,1,1199.743,456.915Z" transform="translate(-13.256 -8.837)" fill="none" stroke="#fff" stroke-miterlimit="10" stroke-width="3"/>
    <path id="Tracé_126" data-name="Tracé 126" d="M1232.556,456.915a4.862,4.862,0,1,1-4.862-4.861A4.863,4.863,0,0,1,1232.556,456.915Z" transform="translate(-17.674 -8.837)" fill="none" stroke="#fff" stroke-miterlimit="10" stroke-width="3"/>
    <path id="Tracé_127" data-name="Tracé 127" d="M1265.368,456.915a4.862,4.862,0,1,1-4.861-4.861A4.862,4.862,0,0,1,1265.368,456.915Z" transform="translate(-22.093 -8.837)" fill="none" stroke="#fff" stroke-miterlimit="10" stroke-width="3"/>
    <path id="Tracé_128" data-name="Tracé 128" d="M1101.306,489.728a4.862,4.862,0,1,1-4.862-4.862A4.861,4.861,0,0,1,1101.306,489.728Z" transform="translate(0 -13.256)" fill="none" stroke="#fff" stroke-miterlimit="10" stroke-width="3"/>
    <path id="Tracé_129" data-name="Tracé 129" d="M1134.118,489.728a4.862,4.862,0,1,1-4.861-4.862A4.861,4.861,0,0,1,1134.118,489.728Z" transform="translate(-4.419 -13.256)" fill="none" stroke="#fff" stroke-miterlimit="10" stroke-width="3"/>
    <path id="Tracé_130" data-name="Tracé 130" d="M1166.931,489.728a4.862,4.862,0,1,1-4.862-4.862A4.862,4.862,0,0,1,1166.931,489.728Z" transform="translate(-8.837 -13.256)" fill="none" stroke="#fff" stroke-miterlimit="10" stroke-width="3"/>
    <path id="Tracé_131" data-name="Tracé 131" d="M1199.743,489.728a4.862,4.862,0,1,1-4.862-4.862A4.861,4.861,0,0,1,1199.743,489.728Z" transform="translate(-13.256 -13.256)" fill="none" stroke="#fff" stroke-miterlimit="10" stroke-width="3"/>
    <path id="Tracé_132" data-name="Tracé 132" d="M1232.556,489.728a4.862,4.862,0,1,1-4.862-4.862A4.862,4.862,0,0,1,1232.556,489.728Z" transform="translate(-17.674 -13.256)" fill="none" stroke="#fff" stroke-miterlimit="10" stroke-width="3"/>
    <path id="Tracé_133" data-name="Tracé 133" d="M1265.368,489.728a4.862,4.862,0,1,1-4.861-4.862A4.861,4.861,0,0,1,1265.368,489.728Z" transform="translate(-22.093 -13.256)" fill="none" stroke="#fff" stroke-miterlimit="10" stroke-width="3"/>
    <path id="Tracé_134" data-name="Tracé 134" d="M1101.306,522.54a4.862,4.862,0,1,1-4.862-4.861A4.862,4.862,0,0,1,1101.306,522.54Z" transform="translate(0 -17.674)" fill="none" stroke="#fff" stroke-miterlimit="10" stroke-width="3"/>
    <path id="Tracé_135" data-name="Tracé 135" d="M1134.118,522.54a4.862,4.862,0,1,1-4.861-4.861A4.862,4.862,0,0,1,1134.118,522.54Z" transform="translate(-4.419 -17.674)" fill="none" stroke="#fff" stroke-miterlimit="10" stroke-width="3"/>
    <path id="Tracé_136" data-name="Tracé 136" d="M1166.931,522.54a4.862,4.862,0,1,1-4.862-4.861A4.863,4.863,0,0,1,1166.931,522.54Z" transform="translate(-8.837 -17.674)" fill="none" stroke="#fff" stroke-miterlimit="10" stroke-width="3"/>
    <path id="Tracé_137" data-name="Tracé 137" d="M1199.743,522.54a4.862,4.862,0,1,1-4.862-4.861A4.862,4.862,0,0,1,1199.743,522.54Z" transform="translate(-13.256 -17.674)" fill="none" stroke="#fff" stroke-miterlimit="10" stroke-width="3"/>
    <path id="Tracé_138" data-name="Tracé 138" d="M1232.556,522.54a4.862,4.862,0,1,1-4.862-4.861A4.863,4.863,0,0,1,1232.556,522.54Z" transform="translate(-17.674 -17.674)" fill="none" stroke="#fff" stroke-miterlimit="10" stroke-width="3"/>
    <path id="Tracé_139" data-name="Tracé 139" d="M1265.368,522.54a4.862,4.862,0,1,1-4.861-4.861A4.862,4.862,0,0,1,1265.368,522.54Z" transform="translate(-22.093 -17.674)" fill="none" stroke="#fff" stroke-miterlimit="10" stroke-width="3"/>
  </g>
</svg>
