<svg xmlns="http://www.w3.org/2000/svg" width="143.487" height="241.924" viewBox="0 0 143.487 241.924">
  <g id="Groupe_32" data-name="Groupe 32" transform="translate(-1741.708 -205.011)">
    <path id="Tracé_66" data-name="Tracé 66" d="M1879.076,216.748a5.618,5.618,0,1,1,5.619-5.618A5.618,5.618,0,0,1,1879.076,216.748Z" fill="#fff" stroke="#fff" stroke-miterlimit="10" stroke-width="1"/>
    <path id="Tracé_67" data-name="Tracé 67" d="M1879.076,249.56a5.618,5.618,0,1,1,5.619-5.618A5.618,5.618,0,0,1,1879.076,249.56Z" fill="#fff" stroke="#fff" stroke-miterlimit="10" stroke-width="1"/>
    <path id="Tracé_68" data-name="Tracé 68" d="M1879.076,282.373a5.618,5.618,0,1,1,5.619-5.619A5.618,5.618,0,0,1,1879.076,282.373Z" fill="#fff" stroke="#fff" stroke-miterlimit="10" stroke-width="1"/>
    <path id="Tracé_69" data-name="Tracé 69" d="M1879.076,315.185a5.618,5.618,0,1,1,5.619-5.618A5.618,5.618,0,0,1,1879.076,315.185Z" fill="#fff" stroke="#fff" stroke-miterlimit="10" stroke-width="1"/>
    <path id="Tracé_70" data-name="Tracé 70" d="M1879.076,348a5.618,5.618,0,1,1,5.619-5.619A5.619,5.619,0,0,1,1879.076,348Z" fill="#fff" stroke="#fff" stroke-miterlimit="10" stroke-width="1"/>
    <path id="Tracé_71" data-name="Tracé 71" d="M1879.076,380.81a5.618,5.618,0,1,1,5.619-5.618A5.618,5.618,0,0,1,1879.076,380.81Z" fill="#fff" stroke="#fff" stroke-miterlimit="10" stroke-width="1"/>
    <path id="Tracé_72" data-name="Tracé 72" d="M1879.076,413.623a5.618,5.618,0,1,1,5.619-5.619A5.619,5.619,0,0,1,1879.076,413.623Z" fill="#fff" stroke="#fff" stroke-miterlimit="10" stroke-width="1"/>
    <path id="Tracé_73" data-name="Tracé 73" d="M1879.076,446.435a5.618,5.618,0,1,1,5.619-5.618A5.618,5.618,0,0,1,1879.076,446.435Z" fill="#fff" stroke="#fff" stroke-miterlimit="10" stroke-width="1"/>
    <path id="Tracé_74" data-name="Tracé 74" d="M1846.264,216.748a5.618,5.618,0,1,1,5.618-5.618A5.619,5.619,0,0,1,1846.264,216.748Z" fill="#fff" stroke="#fff" stroke-miterlimit="10" stroke-width="1"/>
    <path id="Tracé_75" data-name="Tracé 75" d="M1846.264,249.56a5.618,5.618,0,1,1,5.618-5.618A5.619,5.619,0,0,1,1846.264,249.56Z" fill="#fff" stroke="#fff" stroke-miterlimit="10" stroke-width="1"/>
    <path id="Tracé_76" data-name="Tracé 76" d="M1846.264,282.373a5.618,5.618,0,1,1,5.618-5.619A5.619,5.619,0,0,1,1846.264,282.373Z" fill="#fff" stroke="#fff" stroke-miterlimit="10" stroke-width="1"/>
    <path id="Tracé_77" data-name="Tracé 77" d="M1846.264,315.185a5.618,5.618,0,1,1,5.618-5.618A5.619,5.619,0,0,1,1846.264,315.185Z" fill="#fff" stroke="#fff" stroke-miterlimit="10" stroke-width="1"/>
    <path id="Tracé_78" data-name="Tracé 78" d="M1846.264,348a5.618,5.618,0,1,1,5.618-5.619A5.619,5.619,0,0,1,1846.264,348Z" fill="#fff" stroke="#fff" stroke-miterlimit="10" stroke-width="1"/>
    <path id="Tracé_79" data-name="Tracé 79" d="M1846.264,380.81a5.618,5.618,0,1,1,5.618-5.618A5.619,5.619,0,0,1,1846.264,380.81Z" fill="#fff" stroke="#fff" stroke-miterlimit="10" stroke-width="1"/>
    <path id="Tracé_80" data-name="Tracé 80" d="M1846.264,413.623a5.618,5.618,0,1,1,5.618-5.619A5.619,5.619,0,0,1,1846.264,413.623Z" fill="#fff" stroke="#fff" stroke-miterlimit="10" stroke-width="1"/>
    <path id="Tracé_81" data-name="Tracé 81" d="M1846.264,446.435a5.618,5.618,0,1,1,5.618-5.618A5.619,5.619,0,0,1,1846.264,446.435Z" fill="#fff" stroke="#fff" stroke-miterlimit="10" stroke-width="1"/>
    <path id="Tracé_82" data-name="Tracé 82" d="M1813.451,216.748a5.618,5.618,0,1,1,5.619-5.618A5.618,5.618,0,0,1,1813.451,216.748Z" fill="#fff" stroke="#fff" stroke-miterlimit="10" stroke-width="1"/>
    <path id="Tracé_83" data-name="Tracé 83" d="M1813.451,249.56a5.618,5.618,0,1,1,5.619-5.618A5.618,5.618,0,0,1,1813.451,249.56Z" fill="#fff" stroke="#fff" stroke-miterlimit="10" stroke-width="1"/>
    <path id="Tracé_84" data-name="Tracé 84" d="M1813.451,282.373a5.618,5.618,0,1,1,5.619-5.619A5.618,5.618,0,0,1,1813.451,282.373Z" fill="#fff" stroke="#fff" stroke-miterlimit="10" stroke-width="1"/>
    <path id="Tracé_85" data-name="Tracé 85" d="M1813.451,315.185a5.618,5.618,0,1,1,5.619-5.618A5.618,5.618,0,0,1,1813.451,315.185Z" fill="#fff" stroke="#fff" stroke-miterlimit="10" stroke-width="1"/>
    <path id="Tracé_86" data-name="Tracé 86" d="M1813.451,348a5.618,5.618,0,1,1,5.619-5.619A5.619,5.619,0,0,1,1813.451,348Z" fill="#fff" stroke="#fff" stroke-miterlimit="10" stroke-width="1"/>
    <path id="Tracé_87" data-name="Tracé 87" d="M1813.451,380.81a5.618,5.618,0,1,1,5.619-5.618A5.618,5.618,0,0,1,1813.451,380.81Z" fill="#fff" stroke="#fff" stroke-miterlimit="10" stroke-width="1"/>
    <path id="Tracé_88" data-name="Tracé 88" d="M1813.451,413.623A5.618,5.618,0,1,1,1819.07,408,5.619,5.619,0,0,1,1813.451,413.623Z" fill="#fff" stroke="#fff" stroke-miterlimit="10" stroke-width="1"/>
    <path id="Tracé_89" data-name="Tracé 89" d="M1813.451,446.435a5.618,5.618,0,1,1,5.619-5.618A5.618,5.618,0,0,1,1813.451,446.435Z" fill="#fff" stroke="#fff" stroke-miterlimit="10" stroke-width="1"/>
    <path id="Tracé_90" data-name="Tracé 90" d="M1780.639,216.748a5.618,5.618,0,1,1,5.618-5.618A5.619,5.619,0,0,1,1780.639,216.748Z" fill="#fff" stroke="#fff" stroke-miterlimit="10" stroke-width="1"/>
    <path id="Tracé_91" data-name="Tracé 91" d="M1780.639,249.56a5.618,5.618,0,1,1,5.618-5.618A5.619,5.619,0,0,1,1780.639,249.56Z" fill="#fff" stroke="#fff" stroke-miterlimit="10" stroke-width="1"/>
    <path id="Tracé_92" data-name="Tracé 92" d="M1780.639,282.373a5.618,5.618,0,1,1,5.618-5.619A5.619,5.619,0,0,1,1780.639,282.373Z" fill="#fff" stroke="#fff" stroke-miterlimit="10" stroke-width="1"/>
    <path id="Tracé_93" data-name="Tracé 93" d="M1780.639,315.185a5.618,5.618,0,1,1,5.618-5.618A5.619,5.619,0,0,1,1780.639,315.185Z" fill="#fff" stroke="#fff" stroke-miterlimit="10" stroke-width="1"/>
    <path id="Tracé_94" data-name="Tracé 94" d="M1780.639,348a5.618,5.618,0,1,1,5.618-5.619A5.619,5.619,0,0,1,1780.639,348Z" fill="#fff" stroke="#fff" stroke-miterlimit="10" stroke-width="1"/>
    <path id="Tracé_95" data-name="Tracé 95" d="M1780.639,380.81a5.618,5.618,0,1,1,5.618-5.618A5.619,5.619,0,0,1,1780.639,380.81Z" fill="#fff" stroke="#fff" stroke-miterlimit="10" stroke-width="1"/>
    <path id="Tracé_96" data-name="Tracé 96" d="M1780.639,413.623a5.618,5.618,0,1,1,5.618-5.619A5.619,5.619,0,0,1,1780.639,413.623Z" fill="#fff" stroke="#fff" stroke-miterlimit="10" stroke-width="1"/>
    <path id="Tracé_97" data-name="Tracé 97" d="M1780.639,446.435a5.618,5.618,0,1,1,5.618-5.618A5.619,5.619,0,0,1,1780.639,446.435Z" fill="#fff" stroke="#fff" stroke-miterlimit="10" stroke-width="1"/>
    <path id="Tracé_98" data-name="Tracé 98" d="M1747.827,216.748a5.618,5.618,0,1,1,5.618-5.618A5.618,5.618,0,0,1,1747.827,216.748Z" fill="#fff" stroke="#fff" stroke-miterlimit="10" stroke-width="1"/>
    <path id="Tracé_99" data-name="Tracé 99" d="M1747.827,249.56a5.618,5.618,0,1,1,5.618-5.618A5.618,5.618,0,0,1,1747.827,249.56Z" fill="#fff" stroke="#fff" stroke-miterlimit="10" stroke-width="1"/>
    <path id="Tracé_100" data-name="Tracé 100" d="M1747.827,282.373a5.618,5.618,0,1,1,5.618-5.619A5.618,5.618,0,0,1,1747.827,282.373Z" fill="#fff" stroke="#fff" stroke-miterlimit="10" stroke-width="1"/>
    <path id="Tracé_101" data-name="Tracé 101" d="M1747.827,315.185a5.618,5.618,0,1,1,5.618-5.618A5.618,5.618,0,0,1,1747.827,315.185Z" fill="#fff" stroke="#fff" stroke-miterlimit="10" stroke-width="1"/>
    <path id="Tracé_102" data-name="Tracé 102" d="M1747.827,348a5.618,5.618,0,1,1,5.618-5.619A5.619,5.619,0,0,1,1747.827,348Z" fill="#fff" stroke="#fff" stroke-miterlimit="10" stroke-width="1"/>
    <path id="Tracé_103" data-name="Tracé 103" d="M1747.827,380.81a5.618,5.618,0,1,1,5.618-5.618A5.618,5.618,0,0,1,1747.827,380.81Z" fill="#fff" stroke="#fff" stroke-miterlimit="10" stroke-width="1"/>
    <path id="Tracé_104" data-name="Tracé 104" d="M1747.827,413.623a5.618,5.618,0,1,1,5.618-5.619A5.619,5.619,0,0,1,1747.827,413.623Z" fill="#fff" stroke="#fff" stroke-miterlimit="10" stroke-width="1"/>
    <path id="Tracé_105" data-name="Tracé 105" d="M1747.827,446.435a5.618,5.618,0,1,1,5.618-5.618A5.618,5.618,0,0,1,1747.827,446.435Z" fill="#fff" stroke="#fff" stroke-miterlimit="10" stroke-width="1"/>
  </g>
</svg>
